<svg id="logosandtypes_com" xmlns="http://www.w3.org/2000/svg" viewBox="0 0 150 150"><path d="M0 0h150v150H0V0z" fill="none"/><path d="M28.5 84.6c-.1-.4-.2-.8-.2-1.2-.1-4.3.7-8.5 2.4-12.4 1.7-4 4-7.8 6.9-11.1 2.5-3 5.3-5.9 8.1-8.6 3.9-3.8 8.2-7.1 12.8-9.8 3.6-2 7.5-3.6 11.5-4.7.1 0 .2-.1.4-.1h.1c-.1.2-.2.3-.4.4-2 1.3-3.8 3-5.3 5-2 2.7-2.7 6.2-1.9 9.5.1.5.3.9.5 1.3.6 1.2 2 1.8 3.2 1.2l.1-.1c.2-.1.4-.2.7-.3.1.2.1.5.1.7v36.7c0 .3.1.6.2.9 1.2 2.4 4 3.6 6.6 2.9 2-.6 3.9-1.5 5.6-2.8.5-.4 1-.8 1.6-1.2.3-.2.4-.5.4-.8V60c0-3.3-1.6-5.9-4.2-7.9-.2-.1-.3-.2-.4-.4 1.3-.1 2.6-.1 3.9.2 1.3.2 2.5.6 3.6 1.3 6.4-6.6 14.7-11.1 23.7-12.9.1.2 0 .4-.2.5-2.8 3.3-5.5 6.7-8 10.3-.7 1-1.3 2-2 3-.5.7-.7 1.6-.7 2.4-.1 1.8-.1 3.7-.1 5.5-.1 2.5 0 14.5.1 17.9 0 3 .1 5.9.2 8.9 0 .7.1 1.3.1 2 0 .3.1.5.4.7.6.6 1.4.9 2.3.9 1.4.1 2.9-.2 4.2-.9 2.3-1.2 4.4-2.6 6.3-4.4 1-.9 2-1.9 3-2.8.1-.1.2-.2.4-.3 0 .2 0 .4-.2.6-1.9 3.9-4.2 7.5-6.8 10.9-3.2 4.3-7.1 8.1-11.4 11.3-1 .8-2.1 1.5-3.2 2.1-.2.1-.3.2-.5.2l-8.4-7-8.9 9.4c-1.2-.1-2.5-.3-3.7-.5-4.4-.8-8.7-2.1-12.8-3.9-3.8-1.6-7.2-3.9-10.1-6.8-.7-.7-1.4-1.5-2-2.3-.1-.2-.2-.3-.3-.5.1-.1.4-.1.5 0 .9.3 1.9.4 2.8.3 1.6.1 2.9-1.2 2.9-2.7V66.3c0-.3 0-.7-.1-1-.3-2-2-2.9-3.9-2.6-1.5.3-3 1-4.2 2-1.6 1.1-3.1 2.4-4.4 3.9-2.8 2.9-5.3 6.1-7.5 9.5-1.3 1.9-2.4 3.9-3.4 6-.1.3-.2.4-.4.5z"/><path d="M74.8 12.2C40.9 12.1 13.2 39.5 13 72.9c-.2 35.1 27.4 62.5 61.4 62.6 34.6.1 62-28.5 61.8-62.1 0-32.4-27.3-61.1-61.4-61.2zm53.3 61.7c-.3 29.5-24.4 53.4-53.9 53.1-28.9-.2-53-24.5-52.8-53.7-.1-29.1 24.2-53.2 53.2-53.3 29.8.1 53.5 25 53.5 53.9z"/></svg>