<svg width="601" height="600" viewBox="0 0 601 600" fill="none" xmlns="http://www.w3.org/2000/svg">
<path d="M477.415 484.329C473.429 482.216 462.985 476.598 450.092 469.443C433.549 460.247 430.235 446.273 421.4 449.202C412.564 452.155 369.538 475.325 344.904 472.012C320.269 468.698 322.478 449.298 313.283 448.962C302.982 448.602 284.038 456.381 270.977 461.711C248.143 471.051 229.055 472.012 225.742 455.085C222.429 438.158 204.397 445.529 191.528 450.307C180.963 454.22 134.768 476.453 118.513 484.329H477.415Z" fill="#27AAE1"/>
<path d="M356.246 398.544C356.478 397.563 355.87 396.58 354.89 396.349C353.909 396.117 352.926 396.724 352.694 397.705C352.463 398.686 353.07 399.669 354.051 399.9C355.032 400.132 356.015 399.525 356.246 398.544Z" fill="#33C1FF"/>
<path d="M372.006 432.693C372.718 431.981 372.718 430.825 372.006 430.113C371.293 429.4 370.138 429.4 369.425 430.113C368.712 430.825 368.712 431.981 369.425 432.693C370.138 433.406 371.293 433.406 372.006 432.693Z" fill="#33C1FF"/>
<path d="M328.279 422.279C328.511 421.298 327.903 420.316 326.923 420.084C325.942 419.852 324.959 420.46 324.727 421.44C324.496 422.421 325.103 423.404 326.084 423.636C327.065 423.867 328.048 423.26 328.279 422.279Z" fill="#33C1FF"/>
<path d="M310.466 389.707C311.179 388.994 311.179 387.839 310.466 387.126C309.754 386.414 308.598 386.414 307.886 387.126C307.173 387.839 307.173 388.994 307.886 389.707C308.598 390.419 309.754 390.419 310.466 389.707Z" fill="#33C1FF"/>
<path d="M334.335 345.737C334.566 344.756 333.959 343.773 332.978 343.542C331.997 343.31 331.014 343.918 330.783 344.898C330.551 345.879 331.159 346.862 332.139 347.094C333.12 347.325 334.103 346.718 334.335 345.737Z" fill="#33C1FF"/>
<path d="M377.809 355.966C378.041 354.986 377.433 354.003 376.453 353.771C375.472 353.54 374.489 354.147 374.257 355.128C374.026 356.108 374.633 357.091 375.614 357.323C376.595 357.554 377.578 356.947 377.809 355.966Z" fill="#33C1FF"/>
<path d="M351.484 378.736C351.716 377.755 351.108 376.772 350.128 376.541C349.147 376.309 348.164 376.916 347.933 377.897C347.701 378.878 348.308 379.861 349.289 380.092C350.27 380.324 351.253 379.717 351.484 378.736Z" fill="#33C1FF"/>
<path d="M394.22 388.557C394.452 387.576 393.845 386.593 392.864 386.362C391.883 386.13 390.9 386.737 390.669 387.718C390.437 388.699 391.044 389.682 392.025 389.913C393.006 390.145 393.989 389.537 394.22 388.557Z" fill="#33C1FF"/>
<path d="M371.435 431.699L325.984 422.095L349.537 377.82L392.9 387.544L371.435 431.699ZM327.064 421.615L371.026 430.882L391.867 388.049L349.922 378.661L327.064 421.615Z" fill="#1B75BC"/>
<path d="M326.512 422.647L308.817 388.673L332.442 344.278L350.138 378.253L326.512 422.647ZM309.633 388.673L326.512 421.086L349.322 378.229L332.442 345.815L309.633 388.673Z" fill="#1B75BC"/>
<path d="M392.059 387.977L375.66 355.419L332.37 345.407L332.514 344.711L376.165 354.795L392.707 387.64L392.059 387.977Z" fill="#1B75BC"/>
<path d="M370.907 431.459L354.724 398.661L309.153 389.033L309.297 388.313L355.204 398.013L371.555 431.147L370.907 431.459Z" fill="#1B75BC"/>
<path d="M375.474 355.193L354.636 397.948L355.284 398.263L376.122 355.508L375.474 355.193Z" fill="#1B75BC"/>
<path d="M112.319 409.249C105.092 409.249 98.081 405.336 94.4795 398.517C91.9584 393.763 91.4542 388.313 93.0629 383.175C94.6475 378.036 98.153 373.835 102.907 371.314C112.727 366.128 124.924 369.897 130.11 379.717C135.296 389.537 131.527 401.734 121.707 406.921C118.706 408.505 115.488 409.249 112.319 409.249ZM112.271 369.705C109.222 369.705 106.124 370.425 103.243 371.938C98.6572 374.363 95.2958 378.421 93.7592 383.367C92.2225 388.313 92.7267 393.571 95.1277 398.157C98.6092 404.736 105.356 408.505 112.343 408.505C115.392 408.505 118.489 407.785 121.371 406.272C130.831 401.278 134.48 389.513 129.486 380.029C126.005 373.475 119.234 369.705 112.271 369.705Z" fill="#33C1FF"/>
<path d="M118.73 407.641C113.592 407.641 107.013 402.311 102.715 394.171C100.218 389.441 98.8494 384.495 98.8494 380.197C98.8494 375.828 100.29 372.682 102.883 371.314C108.165 368.529 116.665 374.243 121.851 384.063C127.037 393.883 126.965 404.135 121.683 406.921C120.794 407.401 119.786 407.641 118.73 407.641ZM105.932 371.314C104.972 371.314 104.06 371.53 103.243 371.962C100.89 373.21 99.5937 376.14 99.5937 380.221C99.5937 384.399 100.938 389.225 103.363 393.859C107.541 401.758 113.832 406.945 118.682 406.945C119.642 406.945 120.554 406.728 121.371 406.296C126.293 403.703 126.245 393.883 121.251 384.399C117.073 376.524 110.758 371.314 105.932 371.314Z" fill="#33C1FF"/>
<path d="M129.628 379.644L94.7859 398.04L95.1222 398.677L129.964 380.281L129.628 379.644Z" fill="#33C1FF"/>
<path d="M105.031 394.338C105.194 393.196 104.401 392.137 103.259 391.973C102.117 391.81 101.059 392.603 100.895 393.745C100.731 394.887 101.524 395.945 102.666 396.109C103.808 396.273 104.867 395.48 105.031 394.338Z" fill="#66D9FF"/>
<path d="M123.607 384.533C123.771 383.391 122.978 382.333 121.836 382.169C120.694 382.006 119.635 382.799 119.472 383.941C119.308 385.083 120.101 386.141 121.243 386.305C122.385 386.469 123.444 385.675 123.607 384.533Z" fill="#66D9FF"/>
<path d="M95.2959 396.428C96.4003 396.764 97.0006 397.941 96.6644 399.021C96.3283 400.102 95.1518 400.726 94.0714 400.39C92.9669 400.054 92.3666 398.877 92.7028 397.797C93.0389 396.716 94.1914 396.092 95.2959 396.428Z" fill="#66D9FF"/>
<path d="M130.446 377.892C131.551 378.229 132.151 379.405 131.815 380.486C131.479 381.566 130.302 382.19 129.222 381.854C128.141 381.518 127.517 380.341 127.853 379.261C128.189 378.157 129.342 377.556 130.446 377.892Z" fill="#66D9FF"/>
<path d="M103.507 369.849C104.612 370.185 105.212 371.362 104.876 372.442C104.54 373.547 103.363 374.147 102.283 373.811C101.178 373.475 100.578 372.298 100.914 371.218C101.25 370.113 102.427 369.513 103.507 369.849Z" fill="#66D9FF"/>
<path d="M121.659 404.231C122.763 404.568 123.364 405.744 123.027 406.824C122.691 407.929 121.515 408.529 120.434 408.193C119.33 407.857 118.73 406.68 119.066 405.6C119.402 404.52 120.554 403.895 121.659 404.231Z" fill="#66D9FF"/>
<path d="M297.772 140.89C296.716 141.01 295.851 140.818 295.347 140.242C295.299 140.193 295.275 140.145 295.227 140.097C292.85 136.64 303.415 124.659 314.555 115.151C325.696 105.643 339.189 97.0955 342.239 99.9767C342.287 100.025 342.311 100.049 342.359 100.097C343.895 101.898 341.086 106.339 338.421 109.725C334.772 114.383 329.345 119.881 323.127 125.187C316.908 130.493 310.618 135.007 305.431 137.865C302.934 139.257 299.933 140.674 297.772 140.89ZM340.054 100.121C335.996 100.529 326.296 106.051 315.035 115.679C301.566 127.156 294.243 137.36 295.827 139.689C295.851 139.713 295.875 139.737 295.899 139.761C296.836 140.866 300.293 139.905 305.119 137.24C310.257 134.407 316.5 129.917 322.695 124.635C328.889 119.353 334.291 113.903 337.893 109.269C341.302 104.899 342.767 101.633 341.855 100.553C341.831 100.529 341.807 100.505 341.783 100.481C341.422 100.169 340.846 100.049 340.054 100.121Z" fill="#1B75BC"/>
<path d="M341.83 100.553C341.806 100.529 341.782 100.505 341.758 100.481L341.47 100.217L342.046 99.7126L342.383 100.097L342.119 100.337L342.263 100.505L342.119 100.337L341.83 100.553Z" fill="#66D9FF"/>
<path d="M341.927 192.631C340.87 192.751 340.006 192.559 339.502 191.983C339.382 191.839 339.285 191.695 339.213 191.527C337.821 188.166 346.2 177.577 358.71 166.893C371.243 156.208 383.008 149.581 386.105 151.502C386.249 151.598 386.393 151.718 386.513 151.838C389.202 154.984 378.854 167.061 367.281 176.929C361.063 182.235 354.772 186.749 349.586 189.606C347.089 190.999 344.087 192.415 341.927 192.631ZM384.208 151.886C380.174 152.295 370.595 157.697 359.19 167.421C345.864 178.802 338.805 188.646 339.886 191.239C339.934 191.335 339.982 191.431 340.054 191.503C340.99 192.607 344.448 191.647 349.274 188.982C354.412 186.149 360.654 181.659 366.849 176.377C380.583 164.66 387.834 154.456 386.009 152.295C385.937 152.223 385.865 152.151 385.769 152.103C385.409 151.886 384.904 151.814 384.208 151.886Z" fill="#1B75BC"/>
<path d="M339.382 192.007L339.141 191.743L294.915 139.93L295.587 139.353L295.803 139.689C295.827 139.713 295.851 139.737 295.851 139.761C296.788 140.866 300.245 139.906 305.071 137.24C310.209 134.407 316.452 129.917 322.647 124.635C328.841 119.353 334.243 113.903 337.845 109.269C341.254 104.899 342.719 101.658 341.807 100.553L342.359 100.097L386.489 151.79L385.961 152.247L385.745 152.103C383.344 150.614 372.515 156.064 359.19 167.421C345.864 178.802 338.805 188.646 339.886 191.239L339.982 191.479L339.382 192.007ZM296.716 140.89L339.069 190.519C339.261 186.365 347.257 176.665 358.734 166.869C370.066 157.193 380.799 150.854 385.025 151.166L342.791 101.706C342.623 103.866 340.462 107.108 338.421 109.725C334.772 114.383 329.345 119.881 323.127 125.187C316.908 130.494 310.618 135.007 305.431 137.865C302.502 139.497 298.877 141.154 296.716 140.89Z" fill="#1B75BC"/>
<path d="M343.295 99.2805C343.799 99.8807 343.727 100.769 343.127 101.273C342.527 101.778 341.638 101.705 341.134 101.105C340.63 100.505 340.702 99.6166 341.302 99.1124C341.902 98.6322 342.791 98.7042 343.295 99.2805Z" fill="#66D9FF"/>
<path d="M296.572 139.161C297.076 139.761 297.004 140.65 296.404 141.154C295.803 141.658 294.915 141.586 294.411 140.986C293.906 140.386 293.979 139.497 294.579 138.993C295.179 138.513 296.067 138.585 296.572 139.161Z" fill="#66D9FF"/>
<path d="M314.243 131.622C314.747 132.222 314.675 133.111 314.075 133.615C313.475 134.119 312.586 134.047 312.082 133.447C311.578 132.846 311.65 131.958 312.25 131.454C312.85 130.95 313.739 131.046 314.243 131.622Z" fill="#66D9FF"/>
<path d="M322.334 109.028C322.839 109.629 322.766 110.517 322.166 111.021C321.566 111.526 320.678 111.453 320.173 110.853C319.669 110.253 319.741 109.365 320.341 108.86C320.918 108.356 321.83 108.428 322.334 109.028Z" fill="#66D9FF"/>
<path d="M340.39 190.494C340.894 191.095 340.822 191.983 340.222 192.487C339.622 192.991 338.733 192.919 338.229 192.319C337.725 191.719 337.797 190.831 338.397 190.326C338.997 189.822 339.886 189.894 340.39 190.494Z" fill="#66D9FF"/>
<path d="M386.945 150.734C387.449 151.334 387.377 152.222 386.777 152.727C386.177 153.231 385.288 153.159 384.784 152.559C384.28 151.958 384.352 151.07 384.952 150.566C385.553 150.086 386.441 150.158 386.945 150.734Z" fill="#66D9FF"/>
<path d="M313.725 132.389L313.177 132.857L357.165 184.392L357.712 183.925L313.725 132.389Z" fill="#1B75BC"/>
<path d="M321.598 109.967L321.05 110.435L365.037 161.97L365.585 161.502L321.598 109.967Z" fill="#1B75BC"/>
<path d="M366.489 160.818C366.993 161.418 366.921 162.307 366.321 162.811C365.721 163.315 364.832 163.243 364.328 162.643C363.824 162.043 363.896 161.154 364.496 160.65C365.096 160.17 365.985 160.218 366.489 160.818Z" fill="#66D9FF"/>
<path d="M358.517 183.147C359.022 183.748 358.95 184.636 358.349 185.14C357.749 185.644 356.861 185.572 356.357 184.972C355.852 184.372 355.924 183.484 356.525 182.979C357.125 182.475 358.013 182.547 358.517 183.147Z" fill="#66D9FF"/>
<path d="M105.332 240.075L211.888 404.567L328.961 240.075H105.332Z" fill="white"/>
<path d="M261.109 478.951H166.389V482.456H261.109V478.951Z" fill="#2278C1"/>
<path d="M254.914 406.608H172.031V482.168H254.914V406.608Z" fill="#2B3990"/>
<path d="M249.031 479.047H212.992V426.273C212.992 423.511 215.249 421.255 218.011 421.255H244.013C246.775 421.255 249.031 423.511 249.031 426.273V479.047ZM213.713 478.326H248.311V426.273C248.311 423.896 246.39 421.975 244.013 421.975H218.011C215.634 421.975 213.713 423.896 213.713 426.273V478.326Z" fill="#E6F8FF"/>
<path d="M200.964 421.687H180.003V424.088H200.964V421.687Z" fill="white"/>
<path d="M200.964 426.104H180.003V428.505H200.964V426.104Z" fill="white"/>
<path d="M200.964 430.522H180.003V432.923H200.964V430.522Z" fill="white"/>
<path d="M200.964 434.94H180.003V437.341H200.964V434.94Z" fill="white"/>
<path d="M200.964 439.358H180.003V441.759H200.964V439.358Z" fill="white"/>
<path d="M200.964 443.776H180.003V446.177H200.964V443.776Z" fill="white"/>
<path d="M200.964 448.17H180.003V450.571H200.964V448.17Z" fill="white"/>
<path d="M240.604 460.127C239.644 460.127 238.851 459.334 238.851 458.374V439.982C238.851 439.022 239.644 438.23 240.604 438.23C241.564 438.23 242.357 439.022 242.357 439.982V458.374C242.357 459.358 241.564 460.127 240.604 460.127Z" fill="white"/>
<path d="M260.941 478.542H166.221V479.263H260.941V478.542Z" fill="#E6F8FF"/>
<path d="M254.842 405.984H172.104C168.67 403.655 167.35 400.246 167.542 396.092H259.404C259.308 400.198 257.988 403.607 254.842 405.984Z" fill="#27AAE1" fill-opacity="0.87"/>
<path d="M242.101 196.968L195.642 196.89L195.626 206.807L242.085 206.884L242.101 196.968Z" fill="#80D9FF"/>
<path d="M239.172 196.944L192.713 196.866L192.697 206.783L239.156 206.86L239.172 196.944Z" fill="#27AAE1"/>
<path d="M219.499 235.153L219.403 300.028C219.403 304.998 215.346 309.032 210.376 309.032L183.989 308.984C178.995 308.984 174.985 304.926 174.985 299.956L175.033 277.411H176.666L176.69 259.739H175.057V259.691L175.105 235.081C175.105 230.111 179.163 226.077 184.133 226.077L210.52 226.125C215.466 226.125 219.499 230.183 219.499 235.153Z" fill="#27AAE1"/>
<path d="M249.942 226.199L190.229 226.1L190.09 309.15L249.803 309.25L249.942 226.199Z" fill="#1B75BC"/>
<path d="M252.753 226.197L242.093 226.173V228.358H239.212V226.173L226.366 226.149C221.396 226.149 217.339 230.183 217.339 235.153L217.219 300.028C217.219 304.998 221.252 309.056 226.222 309.056L252.609 309.104C257.579 309.104 261.637 305.07 261.637 300.1L261.757 235.225C261.757 230.255 257.747 226.197 252.753 226.197Z" fill="#D9F3FF"/>
<path d="M252.633 309.344L226.246 309.296C221.132 309.296 217.002 305.118 217.002 300.028L217.122 235.153C217.122 232.68 218.083 230.351 219.836 228.622C221.588 226.869 223.893 225.933 226.366 225.933C226.366 225.933 226.366 225.933 226.39 225.933L239.476 225.957V228.142H241.877V225.957L252.777 225.981C255.25 225.981 257.579 226.942 259.308 228.694C261.061 230.447 262.021 232.776 261.997 235.249L261.877 300.124C261.877 302.597 260.917 304.926 259.164 306.655C257.411 308.407 255.106 309.344 252.633 309.344ZM226.366 226.389C224.037 226.389 221.828 227.302 220.172 228.958C218.515 230.615 217.603 232.824 217.579 235.153L217.459 300.028C217.459 304.878 221.372 308.816 226.222 308.816L252.609 308.864C252.609 308.864 252.609 308.864 252.633 308.864C254.962 308.864 257.171 307.951 258.828 306.295C260.485 304.638 261.397 302.429 261.421 300.1L261.541 235.225C261.541 232.872 260.629 230.663 258.972 229.006C257.315 227.35 255.106 226.437 252.777 226.413L242.357 226.389V228.574H238.996V226.389H226.366Z" fill="white"/>
<path d="M258.42 235.225L258.3 300.1C258.3 303.221 255.755 305.766 252.609 305.766L226.222 305.718C223.101 305.718 220.556 303.173 220.556 300.028L220.676 235.153C220.676 232.032 223.221 229.487 226.366 229.487L252.753 229.535C255.875 229.559 258.42 232.104 258.42 235.225Z" fill="#30B6F0"/>
<path d="M255.611 235.225L255.49 300.1C255.49 303.221 252.945 305.766 249.8 305.766L226.222 305.718C223.101 305.718 220.556 303.173 220.556 300.028L220.676 235.153C220.676 232.032 223.221 229.487 226.366 229.487L249.944 229.535C253.065 229.559 255.611 232.104 255.611 235.225Z" fill="#2B3990"/>
<path d="M252.42 256.639C252.44 244.771 246.608 235.14 239.394 235.128C232.18 235.116 226.317 244.727 226.297 256.595C226.277 268.463 232.109 278.094 239.322 278.106C246.536 278.118 252.4 268.507 252.42 256.639Z" fill="#19BAFF"/>
<path d="M239.114 235.128L239.042 278.106L267.926 278.154L267.998 235.176L239.114 235.128Z" fill="#1B75BC"/>
<path d="M280.92 256.687C280.94 244.819 275.108 235.188 267.894 235.176C260.681 235.164 254.817 244.775 254.797 256.643C254.777 268.511 260.609 278.142 267.823 278.154C275.036 278.166 280.9 268.555 280.92 256.687Z" fill="#D9F3FF"/>
<path d="M250.881 256.546C250.857 268.311 256.331 278.155 262.814 278.155H262.622H260.773C258.18 277.459 255.779 275.322 253.906 271.936C251.625 267.831 250.376 262.356 250.376 256.546C250.376 250.736 251.649 245.285 253.954 241.18C255.683 238.106 257.82 236.041 260.173 235.201H262.67V235.249C256.187 235.201 250.881 244.781 250.881 256.546Z" fill="white"/>
<path d="M231.673 256.498C231.649 268.263 238.227 278.107 246.007 278.107H245.767H243.558C240.436 277.411 237.579 275.274 235.322 271.888C232.585 267.759 231.072 262.308 231.096 256.498C231.096 250.687 232.633 245.237 235.394 241.131C237.459 238.058 240.052 235.993 242.861 235.153H245.863V235.201C238.035 235.177 231.697 244.733 231.673 256.498Z" fill="white"/>
<path d="M279.669 256.69C279.645 267.398 274.362 276.09 267.832 276.066C267.568 276.066 267.279 276.042 267.015 276.018C260.869 275.322 256.043 266.918 256.067 256.642C256.091 246.366 260.941 237.986 267.087 237.314C267.351 237.29 267.616 237.266 267.904 237.266C274.41 237.29 279.693 245.982 279.669 256.69Z" fill="#2EAEE6"/>
<path d="M278.06 256.69C278.036 266.966 273.186 275.346 267.039 276.018C260.893 275.322 256.067 266.918 256.091 256.642C256.115 246.366 260.965 237.986 267.111 237.314C273.234 238.01 278.06 246.438 278.06 256.69Z" fill="#1B75BC"/>
<path d="M270.881 256.69C270.881 259.403 269.536 261.612 267.88 261.612C267.495 261.612 267.111 261.492 266.775 261.252C265.671 260.532 264.878 258.755 264.902 256.666C264.902 254.577 265.695 252.8 266.799 252.08C267.135 251.864 267.519 251.72 267.904 251.72C269.536 251.744 270.881 253.953 270.881 256.69Z" fill="#1496CC"/>
<path d="M268.648 256.666C268.648 258.755 267.856 260.532 266.751 261.252C265.647 260.532 264.854 258.755 264.878 256.666C264.878 254.577 265.671 252.8 266.775 252.08C267.88 252.824 268.648 254.601 268.648 256.666Z" fill="#BBE8FA"/>
<path d="M242.538 293.017C242.546 288.177 240.166 284.25 237.222 284.245C234.278 284.24 231.885 288.159 231.877 292.999C231.869 297.839 234.249 301.767 237.193 301.772C240.137 301.777 242.53 297.857 242.538 293.017Z" fill="#19BAFF"/>
<path d="M237.096 284.245L237.067 301.748L248.832 301.768L248.861 284.265L237.096 284.245Z" fill="#1B75BC"/>
<path d="M254.133 293.03C254.141 288.19 251.761 284.262 248.817 284.257C245.873 284.252 243.48 288.172 243.472 293.012C243.464 297.852 245.844 301.78 248.788 301.785C251.732 301.789 254.125 297.87 254.133 293.03Z" fill="white"/>
<path d="M241.877 292.969C241.877 297.771 244.086 301.781 246.751 301.781H246.679H245.935C244.878 301.493 243.894 300.628 243.149 299.236C242.213 297.555 241.709 295.322 241.709 292.969C241.709 290.592 242.237 288.383 243.173 286.702C243.87 285.454 244.758 284.614 245.694 284.253H246.703V284.277C244.038 284.277 241.901 288.167 241.877 292.969Z" fill="white"/>
<path d="M234.05 292.969C234.05 297.771 236.715 301.781 239.884 301.781H239.788H238.876C237.603 301.493 236.427 300.628 235.514 299.236C234.386 297.555 233.785 295.322 233.785 292.969C233.785 290.592 234.41 288.383 235.538 286.702C236.378 285.454 237.435 284.614 238.587 284.253H239.812V284.277C236.667 284.253 234.074 288.167 234.05 292.969Z" fill="white"/>
<path d="M253.618 293.041C253.618 297.411 251.457 300.94 248.792 300.94C248.672 300.94 248.576 300.94 248.456 300.916C245.959 300.628 243.99 297.195 243.99 293.017C243.99 288.839 245.983 285.406 248.48 285.142C248.6 285.118 248.696 285.118 248.816 285.118C251.481 285.118 253.618 288.671 253.618 293.041Z" fill="#2EAEE6"/>
<path d="M252.969 293.041C252.969 297.219 250.977 300.652 248.48 300.916C245.983 300.628 244.014 297.195 244.014 293.017C244.014 288.839 246.007 285.406 248.504 285.142C251.001 285.43 252.969 288.839 252.969 293.041Z" fill="#1B75BC"/>
<path d="M250.04 293.017C250.04 294.122 249.488 295.034 248.816 295.034C248.648 295.034 248.503 294.986 248.359 294.89C247.903 294.602 247.591 293.857 247.591 293.017C247.591 292.177 247.903 291.456 248.359 291.144C248.503 291.048 248.648 291 248.816 291C249.488 291.024 250.04 291.913 250.04 293.017Z" fill="#1496CC"/>
<path d="M249.128 293.017C249.128 293.857 248.816 294.578 248.359 294.89C247.903 294.602 247.591 293.857 247.591 293.017C247.591 292.177 247.903 291.456 248.359 291.144C248.816 291.456 249.128 292.177 249.128 293.017Z" fill="#8CDAFA"/>
<path d="M206.126 259.787L206.102 277.507L175.009 277.459V277.411H176.641L176.665 259.739L206.126 259.787Z" fill="#05B4FF"/>
<path d="M206.342 277.747L174.769 277.699V277.171H176.401L176.425 259.499L206.366 259.547L206.342 277.747ZM176.882 277.219L205.862 277.267L205.886 260.027L176.906 259.979L176.882 277.219Z" fill="white"/>
<path d="M176.666 259.691V259.739H175.033V259.691H176.666Z" fill="#12A7E8"/>
<path d="M204.133 255.249L188.767 255.225C187.542 255.225 186.39 254.745 185.525 253.881C184.661 253.016 184.181 251.864 184.181 250.639L184.205 241.059C184.205 239.835 184.685 238.682 185.549 237.818C186.414 236.954 187.566 236.474 188.791 236.474L204.157 236.498C206.678 236.498 208.719 238.562 208.719 241.083L208.695 250.663C208.695 251.888 208.215 253.04 207.35 253.905C206.51 254.769 205.357 255.249 204.133 255.249ZM188.791 237.578C187.854 237.578 186.99 237.938 186.318 238.586C185.645 239.235 185.285 240.123 185.285 241.059L185.261 250.639C185.261 251.576 185.621 252.44 186.27 253.112C186.918 253.785 187.806 254.145 188.743 254.145L204.109 254.169C205.045 254.169 205.91 253.809 206.582 253.16C207.254 252.512 207.614 251.624 207.614 250.687L207.638 241.107C207.638 239.187 206.078 237.602 204.157 237.602L188.791 237.578Z" fill="#D9F3FF"/>
<path d="M168.526 276.93L168.55 259.211L136.017 259.163C134.864 259.163 133.928 260.099 133.928 261.252L133.904 274.793C133.904 275.946 134.84 276.882 135.993 276.882L168.526 276.93Z" fill="#27AAE1"/>
<path d="M165.189 261.396L165.165 274.769C165.165 275.97 166.125 276.93 167.326 276.93H169.607L169.631 259.211H167.35C166.149 259.211 165.189 260.195 165.189 261.396Z" fill="#66D1FF"/>
<path d="M286.319 297.963L286.343 280.244L309.777 280.292C310.93 280.292 311.866 281.228 311.866 282.381L311.842 295.922C311.842 297.075 310.906 298.011 309.753 298.011L286.319 297.963Z" fill="#27AAE1"/>
<path d="M228.575 360.149L203.077 360.101C200.051 360.101 197.602 357.628 197.602 354.603L197.65 319.572L228.623 319.62L228.575 360.149Z" fill="#33C1FF"/>
<path d="M234.386 360.149H229.632C226.847 360.149 224.59 357.892 224.59 355.107L224.638 319.644L239.476 319.668L239.428 355.131C239.428 357.916 237.171 360.149 234.386 360.149Z" fill="#80D9FF"/>
<path d="M288.604 315.643L278.711 315.627L278.705 319.3L288.597 319.317L288.604 315.643Z" fill="#48C3F7"/>
<path d="M278.156 317.459C278.156 318.468 278.396 319.284 278.732 319.284C279.044 319.284 279.308 318.468 279.308 317.459C279.308 316.451 279.068 315.635 278.732 315.635C278.396 315.635 278.156 316.427 278.156 317.459Z" fill="#48C3F7"/>
<path d="M288.048 317.459C288.048 318.492 288.288 319.332 288.624 319.332C288.936 319.332 289.2 318.492 289.2 317.459C289.2 316.427 288.96 315.587 288.624 315.587C288.288 315.587 288.048 316.427 288.048 317.459Z" fill="#48C3F7"/>
<path d="M289.921 317.483C289.921 319.068 289.536 320.34 289.056 320.388H289.032C288.792 320.388 288.576 320.076 288.408 319.548C288.24 319.02 288.144 318.276 288.144 317.483C288.144 316.667 288.24 315.947 288.408 315.418C288.552 314.938 288.744 314.626 288.984 314.578C289.008 314.578 289.008 314.578 289.032 314.578C289.536 314.554 289.921 315.875 289.921 317.483Z" fill="#48C3F7"/>
<path d="M289.056 320.389H287.784C287.304 320.389 286.919 319.068 286.919 317.483C286.919 315.875 287.328 314.578 287.808 314.578C287.832 314.578 287.832 314.578 287.856 314.578H288.984C288.768 314.626 288.576 314.938 288.408 315.418C288.24 315.947 288.144 316.667 288.144 317.483C288.144 318.3 288.24 319.02 288.408 319.548C288.576 320.052 288.792 320.389 289.056 320.389C289.056 320.389 289.032 320.389 289.056 320.389Z" fill="#1496CC"/>
<path d="M288.58 327.936L278.688 327.92L278.681 331.593L288.574 331.61L288.58 327.936Z" fill="#48C3F7"/>
<path d="M278.132 329.753C278.132 330.761 278.372 331.577 278.708 331.577C279.02 331.577 279.284 330.761 279.284 329.753C279.284 328.744 279.044 327.928 278.708 327.928C278.396 327.904 278.132 328.72 278.132 329.753Z" fill="#48C3F7"/>
<path d="M288.024 329.776C288.024 330.809 288.264 331.649 288.6 331.649C288.936 331.649 289.176 330.809 289.176 329.776C289.176 328.744 288.936 327.904 288.6 327.904C288.288 327.88 288.024 328.72 288.024 329.776Z" fill="#48C3F7"/>
<path d="M289.897 329.776C289.897 331.361 289.513 332.634 289.033 332.682H289.008C288.768 332.682 288.552 332.369 288.384 331.841C288.216 331.313 288.12 330.569 288.12 329.776C288.12 328.96 288.216 328.24 288.384 327.712C288.528 327.231 288.72 326.919 288.96 326.871C288.984 326.871 288.984 326.871 289.008 326.871C289.513 326.847 289.897 328.168 289.897 329.776Z" fill="#48C3F7"/>
<path d="M289.032 332.682H287.76C287.28 332.682 286.896 331.361 286.896 329.776C286.896 328.168 287.304 326.871 287.784 326.871C287.808 326.871 287.808 326.871 287.832 326.871H288.96C288.744 326.919 288.552 327.231 288.384 327.712C288.216 328.24 288.12 328.96 288.12 329.776C288.12 330.593 288.216 331.313 288.384 331.841C288.552 332.345 288.768 332.682 289.032 332.682Z" fill="#1496CC"/>
<path d="M217.915 379.549C202.5 379.549 187.566 376.524 173.496 370.569C159.907 364.831 147.71 356.595 137.217 346.103C126.725 335.611 118.513 323.414 112.751 309.824C106.796 295.754 103.771 280.796 103.771 265.405C103.771 250.015 106.796 235.057 112.751 220.987C118.489 207.397 126.725 195.2 137.217 184.708C147.71 174.216 159.907 166.004 173.496 160.242C187.566 154.287 202.524 151.262 217.915 151.262C233.305 151.262 248.263 154.287 262.333 160.242C275.923 165.98 288.12 174.216 298.612 184.708C309.105 195.2 317.316 207.397 323.079 220.987C329.033 235.057 332.058 250.015 332.058 265.405C332.058 280.796 329.033 295.754 323.079 309.824C317.34 323.414 309.105 335.611 298.612 346.103C288.12 356.595 275.923 364.807 262.333 370.569C248.263 376.548 233.305 379.549 217.915 379.549ZM217.915 152.006C155.369 152.006 104.492 202.883 104.492 265.43C104.492 327.976 155.369 378.853 217.915 378.853C280.461 378.853 331.338 327.976 331.338 265.43C331.338 202.883 280.437 152.006 217.915 152.006Z" fill="#1B75BC"/>
<path d="M223.554 154.874C225.466 152.961 225.466 149.86 223.554 147.947C221.641 146.034 218.54 146.034 216.627 147.947C214.714 149.86 214.714 152.961 216.627 154.874C218.54 156.787 221.641 156.787 223.554 154.874Z" fill="#27AAE1"/>
<path d="M223.561 382.435C225.474 380.522 225.474 377.421 223.561 375.508C221.649 373.596 218.547 373.596 216.635 375.508C214.722 377.421 214.722 380.522 216.635 382.435C218.547 384.348 221.649 384.348 223.561 382.435Z" fill="#48C3F7"/>
<path d="M109.135 266.817C109.757 264.184 108.127 261.546 105.494 260.925C102.861 260.303 100.223 261.933 99.6016 264.566C98.98 267.198 100.61 269.837 103.243 270.458C105.875 271.08 108.514 269.45 109.135 266.817Z" fill="#27AAE1"/>
<path d="M336.697 266.839C337.318 264.206 335.688 261.568 333.056 260.946C330.423 260.325 327.785 261.955 327.163 264.587C326.542 267.22 328.172 269.858 330.804 270.48C333.437 271.101 336.075 269.471 336.697 266.839Z" fill="#27AAE1"/>
<path d="M217.915 322.789C178.418 322.789 141.299 316.835 113.375 306.054C99.7856 300.796 89.1011 294.674 81.634 287.855C73.8788 280.772 69.9412 273.233 69.9412 265.454C69.9412 257.674 73.8788 250.135 81.634 243.052C89.1011 236.233 99.7616 230.111 113.375 224.853C141.299 214.048 178.442 208.118 217.915 208.118C257.387 208.118 294.531 214.072 322.454 224.853C336.044 230.111 346.728 236.233 354.196 243.052C361.951 250.135 365.888 257.674 365.888 265.454C365.888 273.233 361.951 280.772 354.196 287.855C346.728 294.674 336.068 300.796 322.454 306.054C294.531 316.835 257.387 322.789 217.915 322.789ZM217.915 208.55C136.593 208.55 70.4214 234.072 70.4214 265.43C70.4214 296.787 136.593 322.309 217.915 322.309C299.237 322.309 365.408 296.787 365.408 265.43C365.384 234.072 299.237 208.55 217.915 208.55Z" fill="#1B75BC"/>
<path d="M217.915 374.651C203.173 374.651 188.863 371.77 175.393 366.079C162.38 360.581 150.711 352.706 140.675 342.67C130.639 332.634 122.763 320.965 117.265 307.951C111.575 294.482 108.693 280.172 108.693 265.429C108.693 250.687 111.575 236.377 117.265 222.908C122.763 209.894 130.639 198.226 140.675 188.189C150.711 178.153 162.38 170.278 175.393 164.78C188.863 159.089 203.173 156.208 217.915 156.208C232.657 156.208 246.967 159.089 260.437 164.78C273.45 170.278 285.119 178.153 295.155 188.189C305.191 198.226 313.066 209.894 318.565 222.908C324.255 236.377 327.136 250.687 327.136 265.429C327.136 280.172 324.255 294.482 318.565 307.951C313.066 320.965 305.191 332.634 295.155 342.67C285.119 352.706 273.45 360.581 260.437 366.079C246.967 371.77 232.657 374.651 217.915 374.651ZM217.915 156.448C157.818 156.448 108.933 205.332 108.933 265.429C108.933 325.527 157.818 374.411 217.915 374.411C278.012 374.411 326.896 325.527 326.896 265.429C326.896 205.332 278.012 156.448 217.915 156.448Z" fill="#27AAE1"/>
<path d="M267.928 278.395L238.803 278.347V278.323C235.37 278.107 232.201 275.778 229.824 271.768C227.399 267.686 226.078 262.308 226.078 256.618C226.078 250.928 227.423 245.549 229.872 241.468C232.273 237.458 235.466 235.153 238.875 234.937L239.116 234.913L268 234.961V235.441L239.284 235.393L239.14 235.417C235.802 235.537 232.657 237.77 230.28 241.732C227.879 245.717 226.558 251.024 226.558 256.618C226.558 262.236 227.855 267.518 230.232 271.528C232.585 275.49 235.706 277.747 239.068 277.867H239.284L267.952 277.915L267.928 278.395Z" fill="#27AAE1"/>
<path d="M248.84 301.901L236.955 301.877C234.026 301.661 231.769 297.795 231.769 293.017C231.769 288.215 234.05 284.373 236.979 284.157H237.099L248.864 284.181V284.421L237.171 284.397H237.099C234.29 284.493 232.009 288.359 232.009 293.017C232.009 297.675 234.266 301.541 237.075 301.661H237.195L248.84 301.685V301.901Z" fill="#27AAE1"/>
<path d="M117.145 207.205H112.487V242.164H117.145V207.205Z" fill="#1B75BC"/>
<path d="M121.01 213.832C119.306 212.199 116.424 209.318 114.744 207.637C113.087 209.246 110.278 211.983 108.717 213.736L105.884 211.167C108.309 208.478 113.255 203.796 113.447 203.58L114.792 202.307L116.112 203.628C116.16 203.676 121.202 208.718 123.651 211.071L121.01 213.832Z" fill="#1B75BC"/>
<path d="M114.84 245.669L113.519 244.349C113.471 244.301 108.429 239.259 105.98 236.906L108.621 234.169C110.326 235.801 113.207 238.682 114.888 240.363C116.545 238.754 119.354 236.017 120.914 234.265L123.748 236.81C121.323 239.499 116.377 244.181 116.184 244.397L114.84 245.669Z" fill="#1B75BC"/>
<path d="M131.611 226.312V221.654H96.6523V226.312H131.611Z" fill="#1B75BC"/>
<path d="M127.733 232.824L124.996 230.183C126.629 228.478 129.51 225.597 131.191 223.916C129.582 222.26 126.845 219.45 125.092 217.89L127.637 215.057C130.326 217.482 135.008 222.428 135.224 222.62L136.497 223.964L135.176 225.285C135.128 225.333 130.086 230.375 127.733 232.824Z" fill="#1B75BC"/>
<path d="M101.994 232.92C99.3053 230.495 94.6234 225.549 94.4073 225.357L93.1348 224.012L94.4553 222.692C94.5033 222.644 99.5454 217.602 101.898 215.153L104.636 217.794C103.003 219.498 100.122 222.38 98.441 224.06C100.05 225.717 102.787 228.526 104.54 230.087L101.994 232.92Z" fill="#1B75BC"/>
<path d="M422.672 250.183L394.22 262.332L375.636 233.232L370.57 235.537C370.57 235.537 379.622 279.692 389.058 280.916C398.47 282.141 430.019 271.96 430.019 271.96L422.672 250.183Z" fill="#F7A594"/>
<path d="M427.882 247.878L404.064 257.938C408.266 259.499 412.3 270.424 409.154 277.963L429.947 272.705C439.119 268.167 438.423 246.798 427.882 247.878Z" fill="#2B3990"/>
<path d="M372.515 238.322L364.688 237.29L366.681 231.287L370.738 228.67L372.299 229.703L374.172 235.249L372.515 238.322Z" fill="#F7A594"/>
<path d="M360.462 241.299L361.038 241.564L367.329 241.203L376.621 227.038L372.107 223.892L360.462 241.299Z" fill="#231F20"/>
<path d="M370.883 226.125L367.209 220.339C366.465 219.474 369.202 214.84 370.114 216.209C370.114 216.209 378.398 227.974 378.638 228.598C379.214 229.775 375.781 232.032 375.132 231.167L370.883 226.125Z" fill="#231F20"/>
<path d="M366.945 240.915C366.945 240.915 366.225 242.164 365.672 242.956C365.456 243.388 361.207 241.107 361.207 241.107L363.728 239.667L366.945 240.915Z" fill="#231F20"/>
<path d="M375.925 233.688C375.925 233.688 374.1 228.286 372.107 227.302C370.114 226.317 367.065 226.725 367.065 226.725C367.065 226.725 366.489 228.478 367.905 229.126C369.322 229.775 371.195 229.366 371.195 229.366C371.195 229.366 369.754 234.481 372.107 235.657C374.436 236.834 375.925 233.688 375.925 233.688Z" fill="#F7A594"/>
<path d="M364.712 228.79C363.68 229.222 364.856 230.615 364.856 230.615C364.856 230.615 363.632 231.047 363.271 231.767C362.911 232.488 363.872 233.544 363.872 233.544C363.872 233.544 362.335 234.24 362.791 235.369C363.271 236.497 368.001 238.226 368.434 236.81C368.794 235.657 367.425 234.457 367.425 234.457C367.425 234.457 370.282 234.745 369.85 233.856C369.418 232.968 368.434 232.008 368.434 232.008C368.434 232.008 371.099 232.296 370.666 230.951C370.186 229.462 365.72 228.358 364.712 228.79Z" fill="#F7A594"/>
<path d="M368.77 221.107L366.801 223.172L368.265 225.045L370.858 223.94L368.77 221.107Z" fill="#231F20"/>
<path d="M492.325 481.952L471.268 481.88C470.836 481.64 470.524 481.351 470.332 481.039C469.3 465.385 467.763 457.822 467.763 457.822L482.433 457.269L485.722 468.938C490.62 472.3 496.455 479.527 492.325 481.952Z" fill="#131317"/>
<path d="M469.684 482.144L494.654 482.24C495.278 482.24 495.086 478.758 494.462 478.758L469.636 478.806C468.963 478.806 469.011 482.144 469.684 482.144Z" fill="white"/>
<path d="M464.017 320.677C470.116 339.332 475.158 390.402 483.85 463.032L468.891 463.776C464.474 441.879 459.455 430.786 454.413 399.237C442.817 372.802 436.574 347.712 433.237 322.021L464.017 320.677Z" fill="#27AAE1"/>
<path d="M443.777 321.565C442.36 360.317 430.331 401.374 430.331 401.374C428.579 434.82 429.803 440.078 428.267 463.968L414.749 463.752C413.693 447.473 399.551 374.363 413.116 322.933L443.777 321.565Z" fill="#27AAE1"/>
<path d="M428.242 463.944C429.419 470.403 430.283 475.445 429.755 481.279L397.029 481.808C397.029 481.808 393.812 478.638 397.894 473.932C401.976 469.226 409.707 471.988 414.749 463.728L428.242 463.944Z" fill="#131317"/>
<path d="M395.541 481.904L430.307 482.024C430.932 482.024 430.788 478.542 430.163 478.542L395.541 478.566C394.893 478.566 394.893 481.904 395.541 481.904Z" fill="white"/>
<path d="M442.721 254.265C450.452 255.417 455.302 250.039 456.43 247.782L455.95 232.104L447.066 231.215C444.497 231.431 441.904 232.032 439.695 232.896L437.654 243.22L437.198 245.453C436.214 247.638 434.965 253.112 442.721 254.265Z" fill="#F7937E"/>
<path d="M452.949 235.633C451.556 237.77 445.698 243.244 437.678 243.196L439.431 234.265L452.949 235.633Z" fill="#D17360"/>
<path d="M431.82 226.005C431.868 226.677 431.988 227.326 432.18 227.998C432.228 228.166 432.276 228.31 432.324 228.478C433.693 232.776 437.582 236.858 441.064 237.506C443.921 237.818 447.354 237.434 450.428 236.449C450.476 236.425 450.524 236.425 450.572 236.401C452.588 235.729 454.437 234.793 455.83 233.616C457.006 232.248 458.855 229.727 460.512 226.917C461.616 225.069 462.625 223.052 463.345 221.179C463.777 220.051 464.041 218.922 464.185 217.818C465.362 209.366 458.999 202.331 451.148 200.53C444.065 198.898 438.783 200.723 435.757 206.749C434.989 208.262 434.365 210.062 433.885 212.127C433.693 212.968 433.453 214.072 433.188 215.297C432.468 218.874 431.652 223.508 431.82 226.005Z" fill="#F79F8D"/>
<path d="M460.32 227.686C462.193 224.444 459.72 223.1 457.03 225.621C457.511 223.172 460.32 215.969 457.847 213.568C455.062 210.783 442.696 211.959 436.094 205.02C436.094 205.02 441.064 194.192 457.271 200.651C475.566 210.423 460.32 227.686 460.32 227.686Z" fill="#131317"/>
<path d="M465.77 210.038C465.098 212.752 445.818 210.303 445.818 210.303C445.818 210.303 445.338 210.207 444.545 209.966C441.352 208.982 433.236 205.765 433.573 198.586C434.077 191.215 437.462 188.141 437.558 188.045C437.558 188.069 437.51 188.165 437.486 188.333C437.27 189.15 436.814 191.479 438.207 192.991C438.207 192.991 438.207 192.943 438.207 192.871C438.279 192.055 439.023 187.301 447.114 187.205C447.258 187.205 447.402 187.205 447.546 187.205C444.905 188.045 446.082 194.984 446.082 194.984C446.082 194.984 446.106 194.912 446.178 194.816C446.514 194.24 447.763 192.391 450.524 191.503C450.572 191.479 450.62 191.479 450.644 191.455C448.867 199.474 470.188 198.442 465.77 210.038Z" fill="#131317"/>
<path d="M464.209 306.367C464.209 306.367 465.77 324.758 467.355 333.21L429.179 333.498L415.157 333.618L410.019 333.666C412.204 321.157 413.812 320.677 418.014 290.736C420.415 263.365 421.328 253.497 424.809 249.583C427.954 247.758 430.643 246.798 434.701 246.27C434.797 246.246 434.893 246.246 435.013 246.221C435.637 246.149 436.286 246.077 436.958 246.029C436.502 258.01 452.781 255.777 456.31 246.582C461.976 247.11 468.915 249.391 471.484 254.481C475.614 263.293 464.209 306.367 464.209 306.367Z" fill="white"/>
<path d="M437.078 248.022C437.078 248.022 430.307 263.701 429.971 272.705C429.707 279.475 429.371 315.803 429.203 333.498L415.181 333.618L421.351 274.937L423.608 260.123L434.749 246.246L434.893 246.053L435.061 246.198L437.078 248.022Z" fill="#E3EBFF"/>
<path d="M457.606 223.892C459.863 217.481 450.235 214.024 450.235 214.024L445.577 227.158C445.577 227.158 455.349 230.303 457.606 223.892Z" fill="#231F20"/>
<path d="M449.707 213.88C456.022 216.305 451.868 229.535 445.001 227.062L429.083 222.187C423.848 219.738 427.138 207.469 434.149 209.174L449.707 213.88Z" fill="#231F20"/>
<path d="M446.514 226.437C449.131 226.581 451.124 223.796 451.724 220.987C452.204 218.73 451.892 215.729 449.419 214.768L434.005 210.086H433.981C430.475 209.51 428.555 212.896 428.218 213.976C426.994 218.106 427.978 220.627 429.539 221.347L445.313 226.173C445.722 226.317 446.13 226.413 446.514 226.437Z" fill="#D4E6FF"/>
<path d="M448.243 216.449C448.339 216.449 448.435 216.377 448.459 216.281C448.507 216.161 448.435 216.017 448.291 215.993L433.837 211.671C433.717 211.623 433.573 211.695 433.549 211.839C433.5 211.959 433.573 212.103 433.717 212.127L448.171 216.449C448.171 216.449 448.195 216.449 448.243 216.449Z" fill="#27AAE1"/>
<path d="M451.748 214.744L455.614 225.477L464.137 222.692L464.593 220.603L451.748 214.744Z" fill="#231F20"/>
<path d="M458.015 224.348C456.598 226.053 456.55 228.31 457.871 229.415C459.191 230.495 461.424 230.015 462.817 228.31C464.233 226.605 464.281 224.348 462.961 223.244C461.64 222.14 459.431 222.644 458.015 224.348Z" fill="#F79F8D"/>
<path d="M436.214 228.598C436.43 230.759 438.303 232.104 439.671 232.464C443.033 233.328 445.506 231.479 446.754 230.063C446.394 230.111 446.034 230.159 445.674 230.183C440.151 230.591 436.262 227.302 436.262 227.302C436.19 227.758 436.19 228.19 436.214 228.598Z" fill="#040100"/>
<path d="M436.214 228.262C436.622 228.67 437.342 229.342 438.207 229.775C441.712 231.551 444.977 230.903 445.121 230.855L445.698 230.183C440.175 230.591 436.286 227.302 436.286 227.302C436.19 227.758 436.166 227.854 436.214 228.262Z" fill="white"/>
<path d="M496.623 281.876L480.992 264.397L466.322 280.052C466.322 280.052 481.16 293.017 487.163 294.818C495.759 300.004 502.313 289.343 496.623 281.876Z" fill="#F7A594"/>
<path d="M469.011 251.288C467.162 250.687 465.506 250.375 463.993 250.279V278.587C468.747 282.909 473.429 286.87 473.429 286.87C473.645 280.364 480.584 271.072 488.267 271.36C483.753 265.117 477.559 258.419 469.011 251.288Z" fill="#2B3990"/>
<path d="M483.201 243.844L482.793 281.3C482.769 287.062 485.458 298.131 496.791 293.785C503.058 284.085 490.044 242.14 490.044 242.14L483.201 243.844Z" fill="#F7A594"/>
<path d="M490.476 243.821C490.476 243.821 491.173 234.337 489.228 233.496C487.283 232.656 479.768 230.855 479.768 230.855C479.768 230.855 478.88 233.712 480.824 234.817C482.793 235.921 484.786 235.609 484.786 235.609C484.786 235.609 484.138 239.739 485.29 241.708C486.443 243.676 489.204 244.637 490.476 243.821Z" fill="#F7A594"/>
<path d="M475.398 233.712C473.093 235.081 474.27 237.77 474.27 237.77C474.27 237.77 472.373 240.387 474.342 242.452C473.069 244.469 475.182 246.558 475.182 246.558L485.626 248.574L490.74 243.965L488.339 234.649C488.339 234.649 477.199 233.04 475.398 233.712Z" fill="#F7A594"/>
<path d="M480.032 245.837L480.656 245.765L485.77 242.092L486.034 225.165L480.536 224.925L480.032 245.837Z" fill="#231F20"/>
<path d="M480.68 227.446L474.486 224.54C473.405 224.204 473.213 218.85 474.726 219.498C474.726 219.498 488.027 224.997 488.556 225.381C489.66 226.077 487.979 229.799 486.971 229.414L480.68 227.446Z" fill="#231F20"/>
<path d="M485.29 242.044C485.29 242.044 485.362 243.46 485.314 244.445C485.362 244.925 480.536 245.285 480.536 245.285L481.905 242.716L485.29 242.044Z" fill="#231F20"/>
<path d="M476.238 224.348L475.662 227.134L477.895 227.95L479.504 225.597L476.238 224.348Z" fill="#231F20"/>
<path d="M480.056 233.64C480.056 233.64 487.619 233.928 488.459 235.129C489.3 236.329 486.443 237.698 486.443 237.698C486.443 237.698 489.3 239.043 488.628 240.267C487.955 241.492 485.914 241.876 485.914 241.876C485.914 241.876 488.916 243.7 487.811 244.709C486.707 245.717 480.728 246.438 480.728 246.438L474.822 245.333L480.056 233.64Z" fill="#F7A594"/>
<path d="M435.709 245.573C426.922 261.276 425.073 305.742 421.832 344.446L405.649 342.934L417.318 286.222L418.47 270.88L419.743 251.168C425.169 248.623 430.547 246.414 435.709 245.573Z" fill="#2B3990"/>
<path d="M417.246 285.55H417.222C417.102 285.526 417.006 285.406 417.006 285.286C418.518 273.065 418.662 264.301 418.662 264.229C418.662 264.109 418.782 263.989 418.902 263.989C419.046 263.989 419.142 264.109 419.142 264.229C419.142 264.325 418.998 273.089 417.486 285.334C417.462 285.454 417.366 285.55 417.246 285.55Z" fill="#2B3990"/>
<path d="M469.564 302.069L476.791 342.165C476.791 342.165 471.028 343.414 455.47 343.414C446.178 305.526 456.982 246.053 456.982 246.053C466.274 246.678 477.295 258.851 477.295 258.851L470.932 284.085L468.243 294.746L469.564 302.069Z" fill="#2B3990"/>
<path d="M468.243 294.77L469.564 302.093C469.564 302.093 465.65 295.154 465.602 288.791C465.554 282.429 463.585 276.978 463.585 276.978L470.716 284.566L468.243 294.77Z" fill="#1B75BC"/>
<path d="M438.207 240.051L430.74 242.692L432.108 254.793C433.957 250.928 435.59 248.815 437.054 248.022L438.207 240.051Z" fill="#1B75BC"/>
<path d="M456.214 239.715C455.95 241.852 454.797 243.148 454.125 244.157C453.453 248.671 455.59 252.56 455.806 256.786L458.231 246.077C458.471 243.821 457.943 241.684 456.214 239.715Z" fill="#5388FA"/>
</svg>
