<svg width="600" height="600" viewBox="0 0 600 600" fill="none" xmlns="http://www.w3.org/2000/svg">
<path d="M375.6 476.16C375.6 476.16 402.48 483.72 415.2 484.32L430.44 491.28C432.48 492.24 433.08 494.76 431.64 496.56C430.8 497.52 429.6 497.88 428.28 497.64L414.72 494.4L380.52 494.64L375.6 476.16Z" fill="#F2C7C4"/>
<path d="M366.6 492.36C368.04 500.64 386.88 497.64 393.48 497.64C398.4 497.64 407.76 497.4 412.08 497.4C413.4 497.4 414.6 496.44 415.08 495.24C415.8 493.32 414.48 491.28 412.56 490.92L397.32 488.52L374.04 475.8L366.6 492.36Z" fill="#F2C7C4"/>
<path d="M383.64 478.68L415.08 482.4L424.68 491.52C425.88 492.72 426 494.52 424.92 495.84C423.84 497.16 422.04 497.4 420.6 496.44L412.32 490.8L383.52 491.52V478.68H383.64Z" fill="#F2C7C4"/>
<path d="M365.04 314.04C377.16 361.92 382.44 458.76 382.44 458.76L346.8 457.08L343.08 323.28L365.04 314.04Z" fill="#F2C7C4"/>
<path d="M253.32 309.84C235.56 359.16 240.6 406.56 217.08 482.28L237.96 492.24C266.28 442.44 281.52 324.24 281.52 324.24L253.32 309.84Z" fill="#F2C7C4"/>
<path d="M228.96 476.16C228.96 476.16 202.08 483.72 189.36 484.32L174.12 491.28C172.08 492.24 171.48 494.76 172.92 496.56C173.76 497.52 174.96 497.88 176.28 497.64L189.84 494.4L224.04 494.64L228.96 476.16Z" fill="#F2C7C4"/>
<path d="M237.96 492.36C236.52 500.64 217.68 497.64 211.08 497.64C206.16 497.64 196.8 497.4 192.48 497.4C191.16 497.4 189.96 496.44 189.48 495.24C188.76 493.32 190.08 491.28 192 490.92L207.24 488.52L230.52 475.8L237.96 492.36Z" fill="#F2C7C4"/>
<path d="M220.8 478.68L189.36 482.4L179.76 491.52C178.56 492.72 178.44 494.52 179.52 495.84C180.6 497.16 182.4 497.4 183.84 496.44L192.12 490.8L220.92 491.52V478.68H220.8Z" fill="#F2C7C4"/>
<path d="M266.28 397.08L249.6 453C249.6 453 246.84 497.64 301.44 496.56C356.04 495.6 365.04 462.24 365.04 462.24L341.4 396.96H266.28V397.08Z" fill="#345870"/>
<path d="M256.08 432.96C255.36 436.8 254.88 438.48 254.88 438.48C254.88 438.48 296.52 458.88 360.84 437.4L360.24 430.08L355.92 379.8L358.32 378.96L358.8 378.84L385.32 369.6C384.24 365.76 383.28 362.04 382.32 358.44C374.16 329.16 367.92 312 361.56 306.36C356.16 301.56 347.16 302.64 334.56 307.92C327.24 310.92 318.84 315.24 309 320.64C309 320.64 298.92 314.04 287.16 308.64C276.36 303.72 264.12 299.88 256.8 303.24C247.2 307.56 238.8 339.36 234.96 356.52C233.52 363 232.68 367.32 232.68 367.32L260.64 374.64L263.76 375.48L264.12 375.6H264.24C260.64 407.04 257.64 424.8 256.08 432.96Z" fill="#27AAE1"/>
<path d="M254.88 438.48C254.88 438.48 296.52 458.88 360.84 437.4L360.24 430.08C327.84 436.08 277.8 434.28 256.08 433.08C255.24 436.8 254.88 438.48 254.88 438.48Z" fill="#1B75BC"/>
<path d="M356.88 369.6L358.32 378.84L358.8 378.72L385.32 369.48C384.24 365.64 383.28 361.92 382.32 358.32L356.88 369.6Z" fill="#1B75BC"/>
<path d="M285.84 316.2C285.84 330 297 341.28 310.92 341.28C324.72 341.28 336 330.12 336 316.2C336 313.2 335.52 310.32 334.56 307.68C327.24 310.68 318.84 315 309 320.4C309 320.4 298.92 313.8 287.16 308.4C286.2 310.92 285.84 313.56 285.84 316.2Z" fill="#1B75BC"/>
<path d="M289.2 403.44C291 402.36 293.76 402.72 295.8 402.48C297.96 402.24 300.24 402 302.4 401.76C306.84 401.16 311.16 400.2 315.6 399.24C324.36 397.08 332.76 394.2 340.92 390.12C342.84 389.16 344.64 392.04 342.6 393.12C334.44 397.56 325.8 401.28 316.8 403.8C312.36 405.12 307.68 406.08 303.12 406.8C300.84 407.16 298.68 407.4 296.4 407.64C294.12 407.88 291.24 408.6 289.2 407.52C287.52 406.56 287.76 404.28 289.2 403.44Z" fill="#1B75BC"/>
<path d="M289.2 390.36C291.12 389.64 293.64 390.48 295.56 390.72C297.72 390.96 300 391.08 302.16 391.08C306.48 391.08 310.92 390.72 315.12 389.76C317.16 389.28 318 392.28 315.96 392.88C311.4 394.2 306.84 395.16 302.16 395.4C299.88 395.52 297.6 395.64 295.32 395.52C292.92 395.4 290.16 395.52 288.24 393.96C286.92 392.76 287.88 390.84 289.2 390.36Z" fill="#1B75BC"/>
<path d="M291 443.76C282.36 432.48 227.4 379.08 210.84 405C194.16 430.92 215.4 468.96 253.44 487.32C291.48 505.68 324.12 487.08 291 443.76Z" fill="#2B3990"/>
<path d="M208.68 425.28C214.2 438 223.32 448.68 233.4 458.04C238.68 462.96 244.32 467.52 250.2 471.84C255.72 476.04 261.36 480.24 267.12 484.08C272.88 487.92 279.12 491.16 286.2 491.4C287.76 491.4 287.64 493.68 286.08 493.8C279.72 494.28 273.48 491.4 268.2 488.04C262.32 484.32 256.68 480.12 251.16 475.92C239.52 467.28 228.12 458.04 219.36 446.28C214.56 439.92 210.72 433.08 207.96 425.64C207.72 425.16 208.44 424.8 208.68 425.28Z" fill="#3A6885"/>
<path d="M273.96 426C283.92 433.56 292.68 443.04 298.8 454.08C300.48 457.2 302.04 460.44 303.36 463.68C304.08 465.36 301.56 466.44 300.84 464.76C296.28 453.36 289.56 442.8 281.04 433.8C278.64 431.28 276.12 428.76 273.36 426.6C273 426.36 273.48 425.64 273.96 426Z" fill="#3A6885"/>
<path d="M373.08 518.52L389.16 477.12C383.52 475.44 378.6 474.96 378.6 474.96L357.72 514.56C370.2 519.48 373.08 518.52 373.08 518.52Z" fill="white"/>
<path d="M362.64 511.56C361.08 512.76 359.52 513.72 357.72 514.56C355.44 513.72 352.56 512.4 348.96 510.84C345.6 509.4 341.64 507.72 337.2 505.8C332.4 503.76 326.88 501.36 320.64 498.84C320.52 491.28 321.48 482.88 323.88 475.68C336.36 478.2 356.16 475.2 370.44 474.6C374.16 474.48 377.04 474.48 378.6 474.84C380.4 477.12 376.44 500.88 362.64 511.56Z" fill="#3A6885"/>
<path d="M300.24 467.88C298.44 467.04 296.4 466.08 294.36 465C296.52 466.08 298.44 467.04 300.24 467.88Z" fill="#E0954A"/>
<path d="M281.64 458.28C282.36 458.64 282.96 459 283.68 459.36C282.96 459 282.36 458.64 281.64 458.28Z" fill="#E0954A"/>
<path d="M323.88 475.8C321.48 483 320.52 491.4 320.64 498.96C310.08 494.64 296.4 493.32 282.48 488.16L281.52 458.28C282.24 458.64 282.84 459 283.56 459.36C284.88 460.08 286.2 460.8 287.4 461.4C288.6 462 289.8 462.72 291 463.2C292.08 463.8 293.28 464.4 294.24 464.88C296.4 465.96 298.32 466.92 300.12 467.76C303.36 469.32 306.12 470.52 308.88 471.48C309.6 471.72 310.32 472.08 311.04 472.32C311.4 472.44 311.76 472.56 312.12 472.68C312.84 472.92 313.56 473.16 314.28 473.4C314.64 473.52 315 473.64 315.36 473.76C316.08 474 316.68 474.12 317.4 474.36C319.68 474.84 321.72 475.32 323.88 475.8Z" fill="#F2C7C4"/>
<path d="M282.6 488.16L281.64 458.28L282.6 488.16Z" fill="#F2C7C4"/>
<path d="M349.2 511.08C345.72 509.64 341.64 507.84 337.08 505.92C340.8 504.6 347.52 506.04 349.2 511.08Z" fill="white"/>
<path d="M378.72 475.08C382.32 480.36 378.24 503.52 362.76 511.68C357.12 495.24 363.36 474.12 378.72 475.08Z" fill="white"/>
<path d="M324.96 465.36C323.4 465.48 322.32 466.68 321.96 468.36C321.24 471.96 323.88 476.4 325.92 479.16C328.08 481.92 330.6 484.08 333.48 485.52C331.2 485.64 328.92 486.12 326.76 487.2C323.76 488.76 320.76 491.28 319.32 494.64C318 497.64 318.48 502.44 321.96 503.88C325.44 505.32 328.8 502.2 330.96 499.92C333.48 497.16 335.76 493.56 336.72 489.48C336.48 492.12 336.6 494.76 336.96 497.52C336.96 498 337.56 497.88 337.56 497.52C337.44 494.52 337.68 491.64 338.16 488.64C338.4 487.2 338.64 485.76 339 484.44C339.36 483.12 339.96 481.8 340.08 480.36C340.2 479.64 339.36 479.16 338.88 479.76C338.28 480.72 337.92 482.04 337.68 483.24C337.2 477.12 333.72 470.64 329.04 467.04C327.96 466.08 326.4 465.36 324.96 465.36ZM331.56 496.56C329.76 499.08 327.24 502.08 324.12 502.56C322.56 502.8 321.12 502.08 320.4 500.4C319.68 498.72 319.92 496.8 320.64 495.24C322.08 492.36 324.6 490.2 327.24 488.88C329.76 487.56 332.64 486.96 335.64 486.96C334.68 490.44 333.6 493.68 331.56 496.56ZM328.92 468.84C331.2 470.88 333 473.4 334.32 476.28C335.64 479.16 336.24 482.28 336.48 485.28L336.36 485.16C333.48 484.08 330.72 482.16 328.44 479.64C326.28 477.36 324.24 474.12 323.64 471C323.28 469.32 323.52 467.16 325.32 467.04C326.52 466.92 327.84 467.88 328.92 468.84Z" fill="white"/>
<path d="M343.56 482.28C341.76 487.68 341.88 494.04 343.44 499.8C343.56 500.28 344.28 500.16 344.16 499.68C343.56 496.8 343.32 493.92 343.44 491.16C343.56 488.28 344.04 485.64 344.76 482.88C344.88 482.64 344.76 482.28 344.52 482.04C344.4 481.92 344.4 481.92 344.28 481.92C343.92 481.8 343.68 481.92 343.56 482.28Z" fill="white"/>
<path d="M350.76 482.16C348.48 487.32 347.4 493.56 347.28 499.44C347.28 500.16 348.24 500.4 348.24 499.68C348.48 496.8 348.84 493.92 349.44 491.04C350.04 488.16 351 485.52 351.96 482.76C352.32 481.92 351.12 481.32 350.76 482.16Z" fill="white"/>
<path d="M357 482.28C356.88 482.28 356.88 482.28 356.76 482.28C356.52 482.28 356.4 482.52 356.4 482.76C356.04 484.2 355.56 485.64 355.2 487.08C354.84 488.52 354.6 490.08 354.48 491.52C354.12 494.52 354 497.52 354.12 500.64C354.12 501.24 355.08 501.36 355.08 500.76C355.08 497.76 355.32 494.76 355.68 491.88C355.92 490.44 356.16 489.12 356.4 487.68C356.76 486.12 357 484.56 357.6 483.12C357.72 482.88 357.6 482.64 357.48 482.4L357.36 482.28C357.36 482.28 357.24 482.28 357 482.28Z" fill="white"/>
<path d="M281.28 491.04L300.6 495.72L309.72 468.36L277.2 449.4L281.28 491.04Z" fill="#345870"/>
<path d="M377.04 422.4C363.36 426.12 293.16 456.96 311.04 482.16C328.8 507.36 372 501.96 403.32 473.64C434.64 445.2 429.72 408 377.04 422.4Z" fill="#2B3990"/>
<path d="M247.92 523.32L230.4 482.52C235.92 480.6 240.84 480 240.84 480L263.16 518.88C250.92 524.16 247.92 523.32 247.92 523.32Z" fill="white"/>
<path d="M295.56 478.8C298.2 486 299.52 494.28 299.64 501.84C293.52 504.6 288.12 507.12 283.32 509.4C278.88 511.44 275.04 513.36 271.68 514.92C268.08 516.6 265.2 517.92 263.04 518.88C261.24 518.16 259.56 517.2 258 516C243.84 505.68 239.16 482.16 240.72 480C242.28 479.64 245.16 479.4 248.88 479.4C263.28 479.4 283.2 481.68 295.56 478.8Z" fill="#3A6885"/>
<path d="M318.96 470.04C320.76 469.08 322.68 468.12 324.72 466.92C322.68 468.12 320.76 469.08 318.96 470.04Z" fill="#E0954A"/>
<path d="M337.2 459.84C336.48 460.2 335.88 460.68 335.16 461.04C335.88 460.68 336.6 460.2 337.2 459.84Z" fill="#E0954A"/>
<path d="M337.44 489.72C323.76 495.36 310.08 497.16 299.76 501.84C299.64 494.28 298.32 485.88 295.68 478.8C297.84 478.32 299.88 477.72 302.04 477.12C302.76 476.88 303.36 476.64 304.08 476.4C304.44 476.28 304.8 476.16 305.16 476.04C305.88 475.8 306.6 475.56 307.2 475.32C307.56 475.2 307.92 475.08 308.28 474.96C309 474.72 309.72 474.36 310.44 474.12C313.08 473.04 315.84 471.72 318.96 470.04C320.76 469.08 322.68 468.12 324.72 466.92C325.8 466.32 326.88 465.72 327.96 465.12C329.04 464.52 330.24 463.8 331.44 463.2C332.64 462.48 333.96 461.76 335.28 461.04C335.88 460.68 336.6 460.32 337.32 459.84L337.44 489.72Z" fill="#F2C7C4"/>
<path d="M337.44 489.72L337.2 459.84L337.44 489.72Z" fill="#F2C7C4"/>
<path d="M271.56 514.92C274.92 513.36 279 511.44 283.44 509.28C279.72 508.2 273 509.88 271.56 514.92Z" fill="white"/>
<path d="M240.84 480C237.48 485.4 242.28 508.44 258.12 516C263.16 499.44 256.2 478.56 240.84 480Z" fill="white"/>
<path d="M290.04 470.28C285.48 474 282.36 480.6 282 486.72C281.64 485.52 281.4 484.2 280.68 483.36C280.32 482.76 279.48 483.36 279.6 484.08C279.84 485.4 280.44 486.72 280.92 488.04C281.28 489.36 281.64 490.8 281.88 492.24C282.36 495.12 282.72 498 282.84 501C282.84 501.36 283.44 501.48 283.44 501C283.68 498.36 283.68 495.6 283.32 492.96C284.4 496.92 286.8 500.52 289.44 503.16C291.72 505.44 295.2 508.44 298.56 506.76C302.04 505.2 302.28 500.4 300.84 497.4C299.28 494.16 296.16 491.64 293.04 490.2C290.88 489.24 288.6 488.76 286.32 488.76C289.2 487.2 291.6 484.92 293.64 482.16C295.68 479.28 298.08 474.84 297.24 471.24C296.88 469.68 295.68 468.36 294.12 468.36C292.8 468.48 291.24 469.32 290.04 470.28ZM284.16 490.44C287.04 490.2 289.92 490.8 292.56 492C295.2 493.32 297.84 495.36 299.4 498.12C300.24 499.56 300.6 501.48 299.88 503.28C299.28 504.96 297.84 505.8 296.28 505.56C293.28 505.2 290.52 502.2 288.72 499.8C286.56 497.04 285.36 493.8 284.16 490.44ZM294 470.16C295.8 470.28 296.16 472.44 295.8 474.12C295.2 477.36 293.28 480.48 291.24 482.88C289.08 485.4 286.44 487.44 283.44 488.64C283.44 488.64 283.32 488.64 283.32 488.76C283.44 485.64 284.04 482.64 285.24 479.64C286.44 476.76 288.24 474.12 290.4 471.96C291.36 471 292.68 470.04 294 470.16Z" fill="white"/>
<path d="M276.12 486C278.04 491.4 278.16 497.64 276.84 503.52C276.72 504 276 503.88 276.12 503.4C276.6 500.52 276.72 497.64 276.6 494.88C276.36 492 275.76 489.36 275.04 486.72C274.92 486.48 274.92 486.12 275.16 485.88C275.28 485.76 275.28 485.76 275.4 485.76C275.76 485.64 276.12 485.76 276.12 486Z" fill="white"/>
<path d="M269.04 486.12C271.56 491.28 272.88 497.28 273.12 503.28C273.12 504 272.16 504.24 272.16 503.52C271.92 500.64 271.32 497.76 270.6 495C269.88 492.12 268.8 489.48 267.72 486.84C267.48 486 268.68 485.28 269.04 486.12Z" fill="white"/>
<path d="M262.68 486.48C262.8 486.48 262.8 486.48 262.92 486.48C263.16 486.48 263.28 486.72 263.28 486.96C263.64 488.4 264.24 489.84 264.6 491.28C264.96 492.72 265.32 494.28 265.56 495.72C266.04 498.72 266.28 501.72 266.28 504.84C266.28 505.44 265.32 505.56 265.32 504.96C265.2 501.96 264.96 498.96 264.36 496.08C264.12 494.64 263.76 493.32 263.52 491.88C263.16 490.44 262.8 488.76 262.2 487.44C262.08 487.2 262.08 486.96 262.32 486.72L262.44 486.6C262.44 486.6 262.56 486.48 262.68 486.48Z" fill="white"/>
<path d="M337.68 455.52C336.96 455.76 301.68 474.12 301.68 474.12L311.88 499.8L346.08 492.48L337.68 455.52Z" fill="#345870"/>
<path d="M302.4 474C306.6 471.48 311.04 469.44 315.6 467.64C315.6 467.04 315.6 466.44 315.6 465.84C315.84 460.2 318.48 454.8 322.44 450.84C322.8 450.48 323.4 451.08 323.04 451.44C319.32 455.28 317.4 460.56 317.52 465.96C317.64 468.36 318.12 470.64 318.96 472.8C319.44 473.88 319.92 474.84 320.4 475.8C321 476.88 321.96 477.84 322.44 479.04C322.8 480 321.48 480.96 320.64 480.48C319.56 479.76 318.84 478.32 318.12 477.24C317.52 476.04 316.92 474.84 316.56 473.52C316.2 472.32 315.84 471 315.72 469.68C311.64 471.6 307.68 473.88 303.84 476.16C306.12 483.24 308.88 490.2 312 496.92C316.92 494.64 322.56 493.2 327.96 493.56C327.24 492.72 326.64 491.88 326.04 491.04C324.84 489 324.24 486.72 324.12 484.32C324.12 483.84 324.84 483.72 324.84 484.2C325.2 486.36 326.28 488.28 327.6 489.96C328.08 490.56 328.68 491.16 329.16 491.64C329.28 491.64 329.52 491.52 329.64 491.52C343.32 491.64 356.88 489 369.48 483.96C382.08 478.92 393.72 471.72 403.68 462.6C409.32 457.44 414.6 451.68 418.92 445.32C419.28 444.84 420.12 445.2 419.76 445.8C416.04 451.56 411.84 457.08 406.92 462.12C402.12 467.04 396.72 471.6 390.96 475.56C379.56 483.48 366.6 489 353.04 492C346.32 493.44 339.48 494.28 332.52 494.4C332.88 494.76 332.88 495.36 332.64 495.72C332.28 496.32 331.56 496.56 330.96 496.2C330.48 495.96 330 495.6 329.52 495.24C329.4 495.6 329.04 495.72 328.56 495.72C325.68 495.72 322.8 495.84 319.92 496.44C317.04 497.04 314.4 498.12 311.76 499.44C311.28 499.68 310.44 499.68 310.2 499.08C306.72 491.52 303.96 483.72 301.8 475.8C301.68 475.2 301.68 474.36 302.4 474Z" fill="#3A6885"/>
<path d="M266.52 355.44C272.16 354.84 277.8 355.8 283.44 356.16C288.96 356.52 294.6 356.64 300.12 356.64C311.28 356.64 322.44 355.8 333.6 354.48C339.96 353.76 346.2 352.92 352.56 352.44C354.72 352.32 354.6 355.32 352.92 355.92C342.12 359.52 330.72 361.08 319.44 361.92C308.16 362.76 296.76 362.88 285.48 362.28C282.36 362.16 279.36 361.92 276.24 361.68C272.88 361.32 269.64 361.08 266.52 359.88C264.48 359.16 264.12 355.68 266.52 355.44Z" fill="#EBF4FA"/>
<path d="M264.96 369.12C276.72 370.56 288.48 372.36 300.36 373.08C312.12 373.8 323.88 373.56 335.64 372.96C342.36 372.6 349.2 372.36 355.8 371.52C357.84 371.28 358.44 374.04 356.4 374.52C350.52 375.72 344.76 377.16 338.76 377.88C332.64 378.6 326.52 379.08 320.4 379.32C308.28 379.68 296.16 379.32 284.16 378C277.32 377.16 270.48 376.2 263.76 374.52C260.88 373.56 261.72 368.76 264.96 369.12Z" fill="#EBF4FA"/>
<path d="M353.28 351.48C353.04 351.96 353.28 352.44 353.52 352.8C353.52 352.92 353.52 353.04 353.52 353.16C353.88 357.72 354.12 362.28 354.48 366.84C354.72 369 354.84 371.28 355.08 373.56C355.2 375.6 355.32 377.76 355.92 379.8L358.8 378.84C358.92 377.16 358.68 375.36 358.56 373.68C358.32 371.4 358.2 369 357.96 366.72C357.6 362.28 357.12 357.84 356.64 353.4C356.64 353.16 356.64 352.92 356.52 352.68C357.24 351.6 357.84 350.28 358.32 349.08C358.92 347.64 359.4 346.32 359.88 344.88C360.84 342 361.44 339 361.92 335.88C362.04 335.28 361.8 334.68 361.08 334.56C360.48 334.44 359.76 334.8 359.76 335.4C359.28 338.28 358.44 341.16 357.36 343.92C356.88 345 356.4 345.96 355.92 347.04C355.2 340.08 354.36 333.24 353.52 326.28C353.4 325.32 351.84 325.2 351.96 326.28C352.44 334.68 352.92 343.2 353.4 351.6C353.4 351.36 353.28 351.36 353.28 351.48Z" fill="#1B75BC"/>
<path d="M258.36 341.76C259.08 344.64 259.68 347.52 260.4 350.4C260.76 351.84 261.12 353.28 261.48 354.6C261.72 355.8 261.84 357.36 262.68 358.32C262.44 361.08 262.08 363.84 261.72 366.6C261.48 369.12 260.88 371.76 260.52 374.28L264 375.24C264.48 372.36 264.72 369.36 264.96 366.6C265.32 362.76 265.56 358.92 265.68 355.08C265.8 347.16 265.8 339.24 265.2 331.32C265.08 330.24 263.52 330.24 263.52 331.32C263.64 337.8 263.64 344.52 263.16 351C263.04 350.52 262.92 350.04 262.68 349.56C261.84 346.68 260.88 343.92 259.92 341.04C259.68 340.2 258 340.68 258.36 341.76Z" fill="#1B75BC"/>
<path d="M232.56 367.2L260.52 374.52L263.64 375.36L264.96 366.84L234.72 356.4C233.28 362.76 232.56 367.2 232.56 367.2Z" fill="#1B75BC"/>
<path d="M343.44 285L334.8 287.04C330.36 288.12 325.8 285.36 324.72 280.92L322.2 270.24C321.12 265.8 323.88 261.24 328.32 260.16L336.96 258.12C341.4 257.04 345.96 259.8 347.04 264.24L349.56 274.92C350.76 279.36 348 283.92 343.44 285Z" fill="white"/>
<path d="M332.76 286.8C329.28 286.8 326.28 284.4 325.44 281.04L322.8 269.88C322.32 267.96 322.68 265.92 323.64 264.24C324.72 262.56 326.28 261.36 328.32 260.88L331.44 260.16C332.04 260.04 332.64 259.92 333.24 259.92C336.72 259.92 339.72 262.32 340.56 265.68L343.2 276.84C343.68 278.76 343.32 280.8 342.36 282.48C341.28 284.16 339.72 285.36 337.68 285.84L334.56 286.56C333.96 286.68 333.36 286.8 332.76 286.8Z" fill="#D9DADE"/>
<path d="M333.24 260.4C336.48 260.4 339.24 262.56 339.96 265.68L342.6 276.84C343.44 280.56 341.16 284.28 337.56 285.12L334.44 285.84C333.96 285.96 333.36 286.08 332.76 286.08C329.52 286.08 326.76 283.92 326.04 280.8L323.4 269.64C322.92 267.84 323.28 266.04 324.24 264.36C325.2 262.8 326.76 261.72 328.56 261.24L331.68 260.52C332.16 260.52 332.64 260.4 333.24 260.4ZM333.24 259.2C332.64 259.2 331.92 259.32 331.32 259.44L328.2 260.16C323.88 261.24 321.12 265.56 322.2 270L324.84 281.16C325.68 284.88 329.04 287.4 332.76 287.4C333.36 287.4 334.08 287.28 334.68 287.16L337.8 286.44C342.12 285.36 344.88 281.04 343.8 276.6L341.16 265.44C340.2 261.72 336.84 259.2 333.24 259.2Z" fill="#5186C7"/>
<path d="M278.52 284.16C272.4 277.32 268.68 266.64 268.68 266.64C265.32 267.6 261.84 264.36 264.48 260.52C258.6 260.4 267.84 241.32 280.2 245.28L290.16 280.44L278.52 284.16Z" fill="#345870"/>
<path d="M328.08 237.96C338.52 250.92 337.08 268.68 337.08 268.68L320.16 242.64L328.08 237.96Z" fill="#345870"/>
<path d="M325.08 281.76L325.32 293.76L325.68 307.56L326.04 314.76C326.4 322.8 320.52 329.64 312.6 330.48C304.56 331.32 297.36 325.8 296.04 317.88L289.2 275.52L325.08 281.76Z" fill="#F2C7C4"/>
<path d="M325.44 291.24L325.8 309.36C310.44 310.92 300 299.76 297.12 291.48C303.84 289.2 325.44 291.24 325.44 291.24Z" fill="#345870"/>
<path d="M281.52 280.8C278.4 280.44 274.8 281.76 273.36 284.64C272.16 287.04 272.64 289.92 273.6 292.32C274.92 295.44 277.08 298.32 279.96 300.12C282.96 301.92 286.68 302.4 289.8 301.2C293.04 300 295.44 296.88 295.68 293.52C296.04 286.8 287.16 281.4 281.52 280.8Z" fill="#F2C7C4"/>
<path d="M288.36 291.12C285.24 288.96 282 289.08 278.52 290.04C278.04 290.16 278.16 291 278.64 291C281.52 290.64 284.76 292.32 286.8 293.76C287.04 294 287.64 294 288 293.88C288.36 293.76 288.72 293.52 288.84 293.16C289.32 292.44 289.08 291.6 288.36 291.12Z" fill="#345870"/>
<path d="M325.08 244.8C321.96 242.28 318 241.2 313.8 241.08C303.12 240.84 290.88 247.32 285.72 255.12C278.16 266.4 280.56 279.84 288.12 289.92C291.6 294.6 296.16 298.44 301.32 301.08C310.32 305.64 321.96 306.72 330.12 300.72C336 296.4 339.24 288.96 339.6 281.64C340.44 269.16 335.04 252.72 325.08 244.8Z" fill="#F2C7C4"/>
<path d="M329.76 266.64C330.36 268.08 330.12 269.64 329.16 270.12C328.2 270.6 326.76 269.88 326.16 268.56C325.56 267.12 325.8 265.56 326.76 265.08C327.84 264.48 329.16 265.2 329.76 266.64Z" fill="#345870"/>
<path d="M314.16 273.24C314.76 274.68 314.52 276.24 313.56 276.72C312.6 277.2 311.16 276.48 310.56 275.16C309.96 273.72 310.2 272.16 311.16 271.68C312.12 271.2 313.56 271.92 314.16 273.24Z" fill="#345870"/>
<path d="M326.88 273.24C324.36 270.24 321.6 267.48 318.84 264.6C318.6 264.36 318.12 264.72 318.36 264.96C320.4 267.48 322.44 269.88 324.6 272.28C325.68 273.48 327 274.56 327.48 276.12C327.96 277.32 327.48 278.52 326.76 279.6C326.64 279.84 326.76 280.32 327.12 280.2C328.32 279.96 328.92 278.64 328.92 277.56C328.92 275.88 327.84 274.44 326.88 273.24Z" fill="#345870"/>
<path d="M330.6 251.64C329.04 249.48 322.32 252.24 322.08 254.88C321.6 258.24 333.24 255.36 330.6 251.64Z" fill="#345870"/>
<path d="M306.84 262.2C304.8 259.92 297.36 263.76 297.24 266.76C297.12 272.16 309.36 265.08 306.84 262.2Z" fill="#345870"/>
<path d="M317.76 285.36C317.88 284.64 323.88 284.16 324.6 284.88C325.08 285.36 324 287.88 321.36 288.12C319.2 288.24 317.64 286.2 317.76 285.36Z" fill="white"/>
<path d="M288.72 255.12C294.72 264.48 296.04 285.96 288.72 283.32C281.4 280.8 278.76 280.92 278.76 280.92C253.68 256.2 271.92 236.04 288.72 255.12Z" fill="#131317"/>
<path d="M289.92 257.52C295.2 243.6 302.52 241.2 318.12 248.52C322.8 250.68 335.4 250.2 336.12 244.92C336.6 241.44 332.4 240.36 332.4 240.36C340.56 237.96 336.96 230.52 330.72 234C341.16 225.12 333 217.92 326.28 223.56C321.12 228 317.04 229.8 309.72 227.88C298.8 225 280.2 229.92 278.64 247.92L289.92 257.52Z" fill="#131317"/>
<path d="M301.92 280.8L336.72 272.04C343.56 270.36 347.64 263.04 345.84 255.84C344.04 248.64 336.96 244.08 330.12 245.88L295.32 254.64C288.48 256.32 284.4 263.64 286.2 270.84C288.12 278.04 295.08 282.48 301.92 280.8Z" fill="white"/>
<path d="M333.36 246.6C338.52 246.6 343.2 250.56 344.64 256.2C346.32 262.8 342.84 269.4 336.96 270.84L310.2 277.56C309.36 277.8 308.64 277.92 307.8 277.92C302.64 277.92 297.96 273.96 296.52 268.32C294.84 261.72 298.32 255.12 304.2 253.68L330.96 246.96C331.8 246.6 332.52 246.6 333.36 246.6ZM333.36 245.4C332.4 245.4 331.56 245.52 330.6 245.76L303.84 252.48C297.24 254.16 293.52 261.36 295.32 268.56C296.88 274.8 302.16 279 307.8 279C308.76 279 309.6 278.88 310.56 278.64L337.32 271.92C343.92 270.24 347.64 263.04 345.84 255.84C344.28 249.6 339 245.4 333.36 245.4Z" fill="#5186C7"/>
<path d="M335.52 267.24L324.36 270L320.64 270.96L319.08 271.32L312.6 273L312.24 273.12C311.76 273.24 311.28 273.36 310.8 273.36C306.72 273.72 302.88 270.96 301.8 266.88C300.6 262.32 303.48 257.64 308.04 256.44L319.8 253.44L326.28 251.76L327.84 251.4L331.2 250.56C331.32 250.56 331.44 250.56 331.44 250.56C331.8 250.44 332.16 250.44 332.64 250.44C336.72 250.08 340.56 252.84 341.64 256.92C342.96 261.36 340.08 266.04 335.52 267.24Z" fill="#D9DADE"/>
<path d="M327 250.32L318.72 272.76L311.28 274.68L319.56 252.12L327 250.32Z" fill="white"/>
<path d="M333.12 248.76L324.84 271.32L320.52 272.4L328.8 249.84L332.76 248.88C332.88 248.88 333 248.76 333.12 248.76Z" fill="white"/>
<path d="M333.36 261L314.04 265.8C312.84 266.04 311.64 265.32 311.4 264.24C311.16 263.04 311.88 261.84 312.96 261.6L332.28 256.8C333.48 256.56 334.68 257.28 334.92 258.36C335.28 259.56 334.56 260.76 333.36 261Z" fill="#E47272"/>
<path d="M292.8 299.76L284.4 302.52C279.96 303.96 275.28 301.56 273.84 297.24L270.36 286.8C268.92 282.36 271.32 277.68 275.64 276.24L284.04 273.48C288.48 272.04 293.16 274.44 294.6 278.76L298.08 289.2C299.52 293.64 297.12 298.32 292.8 299.76Z" fill="white"/>
<path d="M278.16 281.04L279.12 280.68C282 279.72 285.12 281.28 286.08 284.16L288 289.92C288.96 292.8 287.4 295.92 284.52 296.88L283.56 297.24C280.68 298.2 277.56 296.64 276.6 293.76L274.68 288C273.72 285.12 275.28 282 278.16 281.04Z" fill="#D9DADE"/>
<path d="M281.04 276.12C284.04 276.12 286.68 278.04 287.64 280.92L291.24 291.84C292.44 295.44 290.52 299.4 286.8 300.6L283.68 301.56C282.96 301.8 282.24 301.92 281.52 301.92C278.52 301.92 275.88 300 274.92 297.12L271.32 286.2C270.72 284.4 270.84 282.6 271.68 280.92C272.52 279.24 273.96 278.04 275.64 277.44L278.76 276.48C279.6 276.24 280.32 276.12 281.04 276.12ZM281.04 274.92C280.2 274.92 279.36 275.04 278.52 275.28L275.4 276.24C271.2 277.68 268.8 282.24 270.24 286.44L273.84 297.36C274.92 300.72 278.16 302.88 281.52 302.88C282.36 302.88 283.2 302.76 284.04 302.52L287.16 301.56C291.36 300.12 293.76 295.56 292.32 291.36L288.72 280.44C287.64 277.08 284.4 274.92 281.04 274.92Z" fill="#5186C7"/>
<path d="M186.6 391.08C182.76 391.08 182.76 397.08 186.6 397.08C190.44 397.08 190.44 391.08 186.6 391.08Z" fill="#E8F0F8"/>
<path d="M309.36 522.48C305.52 522.48 305.52 528.48 309.36 528.48C313.2 528.48 313.2 522.48 309.36 522.48Z" fill="#E8F0F8"/>
<path d="M452.64 377.64C448.8 377.64 448.8 383.64 452.64 383.64C456.48 383.64 456.48 377.64 452.64 377.64Z" fill="#E8F0F8"/>
<path d="M542.88 249.48C539.04 249.48 539.04 255.48 542.88 255.48C546.72 255.36 546.72 249.48 542.88 249.48Z" fill="#E8F0F8"/>
<path d="M85.3201 304.08C81.4801 304.08 81.4801 310.08 85.3201 310.08C89.1601 309.96 89.1601 304.08 85.3201 304.08Z" fill="#E8F0F8"/>
<path d="M37.08 283.08C31.68 283.08 31.68 291.36 37.08 291.36C42.36 291.36 42.36 283.08 37.08 283.08Z" fill="#E8F0F8"/>
<path d="M519.12 346.44C513.72 346.44 513.72 354.72 519.12 354.72C524.52 354.72 524.52 346.44 519.12 346.44Z" fill="#E8F0F8"/>
<path d="M456.6 442.68L457.68 436.32L458.76 442.68C459.12 444.6 460.68 446.16 462.6 446.52L468.96 447.6L462.6 448.68C460.68 449.04 459.12 450.6 458.76 452.52L457.68 458.88L456.6 452.52C456.24 450.6 454.68 449.04 452.76 448.68L446.4 447.6L452.76 446.52C454.8 446.16 456.36 444.6 456.6 442.68Z" fill="#E6BC7A"/>
<path d="M114.12 163.44L104.16 157.44L99.84 164.64C97.8 164.04 95.76 163.8 93.72 163.68L91.68 155.52L80.4 158.4L82.44 166.56C80.64 167.52 78.96 168.84 77.4 170.28L70.2 165.96L64.2 175.92L71.4 180.24C70.8 182.28 70.56 184.32 70.44 186.36L62.28 188.4L65.16 199.68L73.32 197.64C74.28 199.44 75.6 201.12 77.04 202.68L72.72 209.88L82.68 215.88L87 208.68C89.04 209.28 91.08 209.52 93.12 209.64L95.16 217.8L106.44 214.92L104.4 206.76C106.2 205.8 107.88 204.48 109.44 203.04L116.64 207.36L122.64 197.4L115.44 193.08C116.04 191.04 116.28 189 116.4 186.96L124.56 184.92L121.68 173.64L113.52 175.68C112.56 173.88 111.24 172.2 109.8 170.64L114.12 163.44ZM98.16 178.92C102.48 181.44 103.8 187.08 101.28 191.28C98.76 195.6 93.12 196.92 88.92 194.4C84.6 191.88 83.28 186.24 85.8 182.04C88.32 177.72 93.84 176.28 98.16 178.92Z" fill="#27AAE1"/>
<path d="M444 64.92L433.56 63.48L432.6 71.04C430.68 71.28 428.88 71.76 427.2 72.48L422.64 66.48L414.24 72.84L418.8 78.84C417.6 80.28 416.64 81.96 415.92 83.76L408.36 82.8L406.92 93.24L414.48 94.2C414.72 96.12 415.2 97.92 415.92 99.6L409.92 104.16L416.28 112.56L422.28 108C423.72 109.2 425.4 110.16 427.2 110.88L426.24 118.44L436.68 119.88L437.64 112.32C439.56 112.08 441.36 111.6 443.04 110.88L447.6 116.88L456 110.52L451.44 104.52C452.64 103.08 453.6 101.4 454.32 99.6L461.88 100.56L463.32 90.12L455.76 89.16C455.52 87.24 455.04 85.44 454.32 83.76L460.32 79.2L453.96 70.8L447.96 75.36C446.52 74.16 444.84 73.2 443.04 72.48L444 64.92ZM436.44 81.12C442.2 81.96 446.28 87.24 445.56 93.12C444.72 98.88 439.44 102.96 433.68 102.24C427.92 101.4 423.84 96.12 424.56 90.24C425.28 84.48 430.68 80.4 436.44 81.12Z" fill="#27AAE1"/>
<g opacity="0.4">
<path d="M225.84 78.0002V163.92C245.16 161.4 266.04 159.96 287.88 159.96C320.52 159.96 351.12 163.08 377.4 168.36V82.5602C351.24 77.1602 320.64 74.1602 287.88 74.1602C266.04 74.1602 245.16 75.4802 225.84 78.0002Z" fill="#2B3990"/>
</g>
<g opacity="0.4">
<path d="M290.88 83.5203C272.52 83.6403 254.52 84.7203 237.36 86.8803C236.4 87.0003 235.8 87.8403 235.8 88.6803C235.8 89.7603 236.76 90.6003 237.84 90.4803C254.88 88.4403 272.76 87.2403 291 87.1203C291.96 87.1203 292.8 86.2803 292.8 85.3203C292.68 84.3603 291.84 83.5203 290.88 83.5203Z" fill="#27AAE1"/>
<path d="M290.76 91.6802C272.4 91.8002 254.52 92.8802 237.36 95.0402C236.4 95.1602 235.8 95.8802 235.8 96.8402C235.8 97.9202 236.76 98.7602 237.84 98.6402C254.88 96.6002 272.64 95.4002 290.88 95.2802C291.84 95.2802 292.68 94.4402 292.68 93.4802C292.68 92.5202 291.84 91.6802 290.76 91.6802Z" fill="#27AAE1"/>
<path d="M290.76 99.8403C272.4 99.9603 254.52 101.04 237.36 103.2C236.4 103.32 235.8 104.04 235.8 105C235.8 106.08 236.76 106.92 237.84 106.8C254.88 104.76 272.64 103.56 290.76 103.44C291.72 103.44 292.56 102.6 292.56 101.64C292.56 100.68 291.72 99.8403 290.76 99.8403Z" fill="#27AAE1"/>
<path d="M255.6 109.44C249.48 109.92 243.36 110.52 237.36 111.24C236.4 111.36 235.8 112.08 235.8 113.04C235.8 114.12 236.76 114.96 237.84 114.84C243.72 114.12 249.84 113.52 255.96 113.04C256.92 112.92 257.64 112.2 257.64 111.24C257.52 110.28 256.68 109.44 255.6 109.44Z" fill="#27AAE1"/>
</g>
<g opacity="0.4">
<path d="M311.64 121.92C330 122.04 348 123.12 365.16 125.28C366.12 125.4 366.72 126.24 366.72 127.08C366.72 128.16 365.76 129 364.68 128.88C347.64 126.84 329.76 125.64 311.52 125.52C310.56 125.52 309.72 124.68 309.72 123.72C309.72 122.76 310.56 121.92 311.64 121.92Z" fill="url(#paint0_linear_12_3)"/>
<path d="M311.76 130.08C330.12 130.2 348 131.28 365.16 133.44C366.12 133.56 366.72 134.28 366.72 135.24C366.72 136.32 365.76 137.16 364.68 137.04C347.64 135 329.88 133.8 311.64 133.68C310.68 133.68 309.84 132.84 309.84 131.88C309.84 130.92 310.68 130.08 311.76 130.08Z" fill="url(#paint1_linear_12_3)"/>
<path d="M311.76 138.24C330.12 138.36 348 139.44 365.16 141.6C366.12 141.72 366.72 142.44 366.72 143.4C366.72 144.48 365.76 145.32 364.68 145.2C347.64 143.16 329.88 141.96 311.76 141.84C310.8 141.84 309.96 141 309.96 140.04C309.96 139.08 310.8 138.24 311.76 138.24Z" fill="url(#paint2_linear_12_3)"/>
<path d="M346.92 147.96C353.04 148.44 359.16 149.04 365.16 149.76C366.12 149.88 366.72 150.6 366.72 151.56C366.72 152.64 365.76 153.48 364.68 153.36C358.8 152.64 352.68 152.04 346.56 151.56C345.6 151.44 344.88 150.72 344.88 149.76C344.88 148.68 345.84 147.84 346.92 147.96Z" fill="url(#paint3_linear_12_3)"/>
</g>
<path d="M399.24 135.72V220.32C401.04 220.44 402.84 220.68 404.52 220.92C411.6 221.64 418.32 222.48 424.56 223.32C428.52 223.8 432.24 224.4 435.84 225C446.04 226.68 455.04 228.48 462.72 230.4C493.68 238.2 505.08 248.28 505.08 259.32V174.72C505.08 158.04 479.16 143.52 399.24 135.72Z" fill="#2B3990"/>
<path d="M411.24 153.6C411.24 154.92 412.2 156 413.64 156.24C482.76 163.32 505.2 176.04 505.2 190.56V185.28C505.2 170.76 482.88 158.04 414.12 151.08C412.56 150.84 411.24 152.04 411.24 153.6Z" fill="url(#paint4_linear_12_3)"/>
<path d="M411.24 164.16C411.24 165.48 412.2 166.56 413.64 166.8C482.76 173.88 505.2 186.6 505.2 201.12V195.84C505.2 181.32 482.88 168.6 414.12 161.64C412.56 161.4 411.24 162.6 411.24 164.16Z" fill="url(#paint5_linear_12_3)"/>
<path d="M411.24 174.72C411.24 176.04 412.2 177.12 413.64 177.36C482.76 184.44 505.2 197.16 505.2 211.68V206.4C505.2 191.88 482.88 179.16 414.12 172.2C412.56 171.96 411.24 173.16 411.24 174.72Z" fill="url(#paint6_linear_12_3)"/>
<path d="M411.24 185.28C411.24 186.6 412.2 187.68 413.64 187.92C482.76 195 505.2 207.72 505.2 222.24V216.96C505.2 202.44 482.88 189.72 414.12 182.76C412.56 182.52 411.24 183.72 411.24 185.28Z" fill="url(#paint7_linear_12_3)"/>
<path d="M411.24 195.84C411.24 197.16 412.2 198.24 413.64 198.48C482.76 205.56 505.2 218.28 505.2 232.8V227.52C505.2 213 482.88 200.28 414.12 193.32C412.56 193.08 411.24 194.28 411.24 195.84Z" fill="url(#paint8_linear_12_3)"/>
<path d="M463.2 214.68C463.2 213 464.76 211.8 466.32 212.16C494.64 219.12 505.08 228.24 505.08 238.08V243.36C505.08 233.4 494.4 224.16 465.12 217.2C464.04 216.84 463.2 215.88 463.2 214.68Z" fill="url(#paint9_linear_12_3)"/>
<path d="M482.04 200.4V285C496.56 277.68 505.08 268.92 505.08 259.44V174.84C505.08 184.32 496.56 193.08 482.04 200.4Z" fill="#2B3990"/>
<path d="M390.84 86.5202C390.48 87.7202 390.12 89.0402 389.64 90.2402C385.2 101.88 376.08 107.88 366.12 109.44C347.76 112.2 326.88 99.3602 329.28 77.0402C329.52 74.8802 330 72.8402 330.72 70.8002C333.48 62.6402 339.84 55.5602 347.88 52.2002C352.08 50.5202 356.4 49.6802 360.72 49.6802C379.32 49.6802 396.72 64.9202 390.84 86.5202Z" fill="#2B3990"/>
<path d="M360.72 49.6802C360.6 49.9202 360.6 50.1602 360.48 50.4002C359.76 53.0402 359.88 55.6802 360.96 58.0802C361.92 60.2402 363.48 62.0402 364.8 64.0802C365.52 65.2802 366.48 67.0802 365.52 68.4002C364.68 69.6002 362.52 70.5602 361.32 71.7602C357.84 75.3602 358.08 80.7602 360.96 84.7202C364.08 88.9202 369.72 90.0002 374.76 89.4002C379.56 88.9202 384.12 86.5202 388.92 86.4002C389.52 86.4002 390.24 86.4002 390.96 86.5202C396.72 64.9202 379.32 49.6802 360.72 49.6802ZM359.4 96.7202C357.84 95.8802 356.28 95.1602 354.6 94.4402C354 94.2002 353.64 93.9602 352.92 93.4802C352.68 93.3602 352.32 93.1202 352.08 92.8802C351.96 92.7602 351.48 92.4002 351.48 92.4002C350.64 91.5602 350.16 90.7202 350.28 89.2802C350.4 87.4802 351.12 85.8002 351.72 84.2402C353.16 80.7602 354.6 76.6802 352.8 73.0802C351 69.3602 346.8 67.6802 342.84 67.6802C338.52 67.6802 334.68 69.8402 330.6 70.8002C329.88 72.8402 329.4 74.8802 329.16 77.0402C326.76 99.2402 347.64 112.2 366 109.44C366.24 107.88 366.36 106.32 366 104.76C365.4 101.04 362.64 98.5202 359.4 96.7202Z" fill="#27AAE1"/>
<path d="M391.2 85.2001C391.08 85.6801 390.96 86.1601 390.84 86.5201C390.48 87.7201 390.12 89.0401 389.64 90.2401C385.2 101.88 376.08 107.88 366.12 109.44C347.76 112.2 326.88 99.3601 329.28 77.0401C329.52 74.8801 330 72.8401 330.72 70.8001C331.44 68.6401 332.4 66.4801 333.72 64.5601C333.6 65.2801 333.48 66.0001 333.36 66.7201C330.96 88.9201 351.84 101.88 370.2 99.1201C378.48 97.9201 386.28 93.3601 391.2 85.2001Z" fill="#2B3990"/>
<path d="M407.76 58.0801C407.4 59.8801 406.2 61.5601 405 63.0001C401.28 67.9201 396.84 72.0001 391.92 75.7201C387.12 79.3201 381.96 82.3201 376.8 85.2001C364.8 91.5601 352.32 97.0801 339.48 101.52C339.24 101.64 339 101.64 338.76 101.76C335.88 102.72 333 103.68 330.12 104.64C326.76 105.6 323.28 107.04 319.8 106.8C316.8 106.56 313.8 104.52 313.2 101.4C312.6 98.2801 314.76 95.5201 316.8 93.4801C320.64 89.6401 324.72 86.1601 329.16 82.9201C329.28 84.3601 329.52 85.8001 329.76 87.1201C326.04 90.2401 322.44 93.6001 319.32 97.2001C318.12 98.6401 316.68 100.8 319.2 101.64C321.6 102.48 324.72 101.04 327 100.32C329.64 99.4801 332.28 98.6401 335.04 97.8001C338.16 96.7201 341.28 95.6401 344.4 94.4401C355.32 90.2401 366.24 85.4401 376.44 79.6801C381.48 76.8001 386.4 73.6801 390.84 69.9601C394.44 66.9601 397.8 63.6001 400.8 59.7601C401.4 58.9201 402 58.0801 402.48 57.1201C402.24 57.1201 402 57.0001 401.64 56.8801C399.12 56.6401 396 57.3601 393.36 57.8401C390.48 58.3201 387.6 58.9201 384.72 59.6401C383.28 58.0801 381.72 56.7601 379.92 55.5601C385.32 53.6401 390.96 52.3201 396.72 51.6001C399.72 51.2401 403.56 50.6401 406.08 52.8001C407.52 54.1201 408.12 56.1601 407.76 58.0801Z" fill="#5186C7"/>
<path d="M367.08 39.6001C367.92 41.7601 370.44 43.3201 372.96 43.0801C375.48 42.9601 377.64 41.0401 378 38.7601C378.36 36.0001 375.48 32.1601 372.36 32.2801C368.4 32.5201 365.64 36.2401 367.08 39.6001Z" fill="white"/>
<path d="M330.24 131.64C333.24 133.92 337.68 134.16 340.8 132.12C348.6 127.44 344.88 115.32 336.24 114.6C327.24 114 323.16 126.24 330.24 131.64Z" fill="white"/>
<path d="M452.16 123.12L474.72 130.44L469.8 107.16L447.12 99.72L452.16 123.12Z" fill="#2B3990"/>
<path d="M474.72 130.44L492.48 114.6L487.44 91.2L469.8 107.16L474.72 130.44Z" fill="#2B3990"/>
<path d="M447.12 99.72L469.8 107.16L487.44 91.2L464.76 83.76L447.12 99.72Z" fill="white"/>
<path d="M489.84 135.72V110.4" stroke="#5186C7" stroke-width="2" stroke-miterlimit="10"/>
<path d="M489.84 138.36V141.96" stroke="#5186C7" stroke-width="2" stroke-miterlimit="10"/>
<path d="M483.72 130.68V118.32" stroke="#5186C7" stroke-width="2" stroke-miterlimit="10"/>
<path d="M423.72 262.44V231.48C438.24 238.8 446.76 247.56 446.76 257.04V288C446.76 278.52 438.24 269.76 423.72 262.44Z" fill="#2B3990"/>
<path d="M404.4 286.08C398.76 287.52 392.28 288.84 385.32 290.16C385.32 300.48 385.44 310.8 385.44 321.12C430.92 312.84 446.88 301.2 446.88 288.12V257.16C446.76 268.2 435.36 278.28 404.4 286.08Z" fill="#2B3990"/>
<path opacity="0.4" d="M430.44 246.84C430.44 247.68 430.92 248.52 431.52 248.88C441.24 255.24 446.76 262.32 446.76 270V264C446.76 257.16 442.32 250.56 434.28 244.8C432.72 243.6 430.44 244.8 430.44 246.84Z" fill="url(#paint10_linear_12_3)"/>
<path opacity="0.4" d="M430.56 257.04C430.56 257.16 430.56 257.16 430.56 257.04C430.56 257.88 431.04 258.72 431.64 259.2C441.24 265.44 446.76 272.64 446.76 280.32V274.32C446.76 267.48 442.32 261 434.4 255.12C432.84 253.92 430.56 255.12 430.56 257.04Z" fill="url(#paint11_linear_12_3)"/>
<path d="M433.8 251.4C433.8 251.4 451.2 238.8 474.36 228.6L438.48 175.2L406.2 204C406.2 204 378.84 218.16 356.16 210L353.64 218.16L387.96 267.84C387.96 267.84 415.56 267.48 433.8 251.4Z" fill="#2B3990"/>
<path d="M404.76 201.24L431.16 247.92C431.16 247.92 410.76 264.84 389.28 260.4L357.12 207.48C386.28 213.96 386.64 191.64 404.76 201.24Z" fill="#F5F9FD"/>
<path d="M404.76 201.24C403.56 186.24 431.16 171 431.16 171L466.92 225.24C466.92 225.24 445.44 226.2 431.16 247.92L404.76 201.24Z" fill="#F5F9FD"/>
<path d="M404.76 201.24L431.04 247.92" stroke="#5186C7" stroke-miterlimit="10"/>
<path d="M385.44 217.8C384.12 215.4 382.92 213 381.36 210.72C381.24 210.48 380.88 210.24 380.52 210.36C377.52 211.56 374.28 212.4 371.16 213.36C370.8 213.24 370.44 213.48 370.32 213.72C369.84 214.08 369.96 214.92 370.44 215.16C371.16 216.6 371.88 218.04 372.72 219.48C373.08 220.2 373.56 221.04 373.92 221.76C374.28 222.36 374.76 222.96 375.48 223.08C376.2 223.2 377.04 222.84 377.76 222.6C378.6 222.24 379.32 221.88 380.16 221.4C381.84 220.56 383.4 219.84 385.08 219C385.44 218.88 385.56 218.16 385.44 217.8ZM379.92 219.6C379.2 219.96 378.6 220.32 377.88 220.68C377.52 220.92 377.16 221.04 376.8 221.28C376.56 221.4 376.2 221.64 375.96 221.64C375.48 221.52 375.24 220.56 375 220.2C374.64 219.48 374.28 218.88 373.92 218.16C373.32 217.08 372.72 215.88 372.12 214.8C374.76 213.84 377.4 212.76 380.16 212.04C381 214.08 382.08 216 383.16 217.92C382.08 218.4 381 219 379.92 219.6Z" fill="#CFE1EF"/>
<path d="M400.44 203.16C395.28 201.48 391.44 206.64 386.88 207.84C386.04 208.08 386.4 209.28 387.24 209.16C389.52 208.68 391.44 207.36 393.48 206.28C395.52 205.2 397.68 204.24 400.08 205.08C401.04 205.44 401.64 203.52 400.44 203.16Z" fill="#CFE1EF"/>
<path d="M401.88 208.08C400.8 207.96 399.72 208.08 398.64 208.32C397.56 208.44 396.48 208.8 395.4 209.16C393.36 209.88 391.44 211.08 389.88 212.52C389.16 213.24 390.24 214.32 390.96 213.6C392.4 212.4 394.2 211.44 396 210.84C396.96 210.6 397.8 210.36 398.76 210.24C399.72 210.12 400.8 210.24 401.76 210.24C402.36 210.24 402.84 209.76 402.84 209.16C402.96 208.56 402.48 208.08 401.88 208.08Z" fill="#CFE1EF"/>
<path d="M405.48 214.92C395.4 215.88 387.96 223.68 378.36 226.08C377.4 226.32 377.76 227.76 378.72 227.64C383.52 226.68 387.84 224.28 392.04 222C396.24 219.72 400.56 217.56 405.48 217.08C406.92 217.08 406.92 214.8 405.48 214.92Z" fill="#CFE1EF"/>
<path d="M390.72 226.92C389.88 227.16 389.16 227.52 388.44 227.88C387.84 228.12 387.12 228.48 386.4 228.6C384.96 229.08 383.4 229.44 381.96 229.56C381.48 229.56 381.12 229.92 381.12 230.4C381.12 230.88 381.48 231.24 381.96 231.24C383.64 231.12 385.32 230.88 386.88 230.4C387.72 230.16 388.44 229.92 389.16 229.56C390 229.2 390.72 228.84 391.44 228.24C392.04 227.64 391.56 226.8 390.72 226.92Z" fill="#CFE1EF"/>
<path d="M418.56 234.36C417.36 230.28 414.48 225.24 409.56 225.48C406.68 225.6 404.16 227.28 401.88 228.72C399.48 230.28 396.96 231.72 394.44 233.04C391.44 234.48 388.44 235.92 385.32 237.12C384.84 237.24 384.72 237.72 384.84 238.08C384.12 238.08 383.52 238.68 383.88 239.52C385.08 241.68 386.52 243.72 387.84 245.88C388.08 246.36 388.8 246.6 389.28 246.24C393.6 243.72 398.16 241.44 402.84 239.64C405.24 238.8 407.64 237.96 410.04 237.24C412.44 236.52 414.96 235.92 417.48 235.56C418.2 235.68 418.68 235.08 418.56 234.36ZM409.56 235.56C407.04 236.28 404.64 237 402.24 237.96C397.68 239.64 393.36 241.68 389.16 244.08C388.08 242.28 387 240.36 385.68 238.68C390.84 237.12 395.64 235.08 400.32 232.32C403.92 230.28 409.32 225.36 413.28 229.2C414.6 230.52 415.32 232.32 416.04 234C413.88 234.48 411.72 234.96 409.56 235.56Z" fill="#CFE1EF"/>
<path d="M417.12 237.6C414.96 238.2 412.8 239.16 410.64 240C408.48 240.84 406.32 241.56 404.16 242.4C399.84 243.96 395.64 245.64 391.32 247.2C390.36 247.56 390.72 249.24 391.8 248.88C396.12 247.32 400.56 245.88 404.88 244.2C407.04 243.36 409.2 242.64 411.36 241.8C413.52 240.96 415.8 240.36 417.84 239.4C418.8 239.04 418.2 237.36 417.12 237.6Z" fill="#CFE1EF"/>
<path d="M404.52 247.56C404.04 247.56 403.44 247.8 402.96 248.04C402.6 248.28 402.24 248.4 401.76 248.64C400.92 249 400.2 249.36 399.36 249.6C397.68 250.2 395.88 250.68 394.08 251.04C393.6 251.16 393.36 251.64 393.48 252.12C393.6 252.6 394.08 252.84 394.56 252.72C396.48 252.48 398.28 252 400.08 251.52C401.04 251.28 401.88 250.92 402.72 250.56C403.56 250.2 404.76 249.84 405.24 249C405.72 248.28 405.24 247.56 404.52 247.56Z" fill="#CFE1EF"/>
<path d="M427.44 180.72C426.36 180.72 425.28 181.44 424.32 181.92C423.36 182.4 422.52 182.88 421.68 183.48C419.88 184.68 418.08 186 416.52 187.56C413.28 190.56 410.76 194.16 408.84 198C408.36 198.96 409.8 199.8 410.28 198.84C412.2 195.12 414.72 191.76 417.84 189C419.4 187.56 420.96 186.36 422.76 185.16C423.6 184.68 424.44 184.08 425.4 183.72C426.24 183.24 427.56 182.88 428.28 182.28C428.52 181.68 428.16 180.72 427.44 180.72Z" fill="#CFE1EF"/>
<path d="M417.96 194.28C417.72 194.04 417.36 194.04 417.12 194.16C416.52 194.64 416.04 195.12 415.44 195.72C414.96 196.32 414.48 196.92 414 197.52C413.04 198.72 412.08 199.92 411.12 201C410.88 201.36 410.76 201.84 411.12 202.08C411.36 202.32 411.96 202.44 412.2 202.08C413.16 200.88 414.12 199.8 415.2 198.6C415.68 198 416.16 197.52 416.64 196.92C417.12 196.32 417.72 195.72 417.96 195C418.2 194.88 418.2 194.52 417.96 194.28Z" fill="#CFE1EF"/>
<path d="M442.08 197.4C440.88 195.12 439.32 192.72 436.92 191.64C434.16 190.44 431.16 191.64 428.64 192.96C426.12 194.4 423.72 196.08 421.44 198C419.16 199.92 417 202.08 415.32 204.6C415.32 204.6 415.32 204.72 415.2 204.72C414.48 204.72 413.76 205.56 414.24 206.28C415.8 208.68 417.72 210.84 419.4 213.12C419.76 213.6 420.48 213.48 420.84 213.12C427.32 207.72 434.16 202.92 441.6 198.84C442.2 198.48 442.44 197.88 442.08 197.4ZM416.4 205.56C416.4 205.56 416.52 205.56 416.52 205.44C418.32 203.52 420.12 201.6 422.16 199.92C424.08 198.24 426.24 196.68 428.52 195.36C430.68 194.16 433.44 192.36 435.96 193.44C437.76 194.16 438.96 195.96 439.92 197.64C433.08 201.48 426.6 205.92 420.48 210.96C419.16 209.04 417.84 207.24 416.4 205.56Z" fill="#CFE1EF"/>
<path d="M444 201.36C443.28 201 442.8 201.36 442.08 201.72C441.48 201.96 441 202.2 440.4 202.56C439.32 203.16 438.12 203.76 437.16 204.48C435.12 205.92 433.2 207.72 431.64 209.64C431.04 210.36 432.12 211.56 432.72 210.72C434.28 208.92 436.08 207.36 438 206.04C438.96 205.32 440.04 204.72 441.12 204.24C441.6 204 442.2 203.76 442.68 203.52C443.28 203.28 444 203.16 444.36 202.56C444.48 202.2 444.36 201.6 444 201.36Z" fill="#CFE1EF"/>
<path d="M446.64 205.56C446.4 205.32 446.16 205.2 445.8 205.2C445.56 205.2 445.32 205.44 445.08 205.56C444.96 205.68 444.72 205.8 444.6 205.92C444.24 206.16 443.88 206.4 443.52 206.64C442.8 207.12 442.08 207.6 441.36 208.08C441 208.32 440.88 208.68 441.12 209.04C441.36 209.4 441.72 209.52 442.08 209.28C442.92 208.92 443.64 208.44 444.36 207.96C444.72 207.72 445.08 207.48 445.56 207.24C445.68 207.12 445.92 207 446.04 206.88C446.16 206.76 446.28 206.76 446.4 206.64C446.64 206.52 446.76 206.4 446.88 206.16C446.88 206.28 446.88 205.8 446.64 205.56Z" fill="#CFE1EF"/>
<path d="M448.2 210.84C447.12 210.84 446.04 211.44 445.2 211.92C444.24 212.28 443.4 212.76 442.44 213.24C440.52 214.2 438.6 215.28 436.92 216.48C433.44 218.88 430.2 221.76 427.56 225C426.96 225.72 428.04 226.8 428.64 226.08C431.4 222.96 434.4 220.32 437.88 218.04C439.56 216.96 441.24 215.88 443.04 215.04C444 214.56 444.84 214.2 445.8 213.72C446.76 213.36 447.96 213.12 448.68 212.52C449.28 212.04 449.28 210.84 448.2 210.84Z" fill="#CFE1EF"/>
<path d="M430.2 213.36C429.12 212.04 427.32 211.56 425.64 212.04C423.72 212.76 422.52 214.56 422.16 216.6C422.04 216.96 422.28 217.2 422.4 217.32C423 219 424.44 220.2 426.24 220.32C427.92 220.56 429.6 219.6 430.56 218.16C431.4 216.72 431.28 214.8 430.2 213.36ZM429 216C429 216 429 216.12 429 216C429 216.12 429 216.24 429 216.24C429 216.36 429 216.36 429 216.48C429 216.6 429 216.6 428.88 216.72C428.76 216.84 428.76 216.96 428.64 217.08C428.64 217.08 428.64 217.2 428.52 217.2C428.52 217.2 428.52 217.32 428.4 217.32C428.28 217.44 428.16 217.56 428.16 217.56C428.16 217.56 428.16 217.56 428.04 217.68L427.92 217.8C427.8 217.92 427.68 217.92 427.56 218.04H427.44H427.32C427.2 218.04 427.08 218.16 426.96 218.16C426.84 218.16 426.72 218.16 426.6 218.16C426.48 218.16 426.48 218.16 426.36 218.16C426.24 218.16 426 218.04 425.88 218.04C425.88 218.04 425.88 218.04 425.76 218.04C425.64 218.04 425.64 217.92 425.52 217.92C425.4 217.8 425.28 217.8 425.16 217.68C425.16 217.68 425.16 217.68 425.04 217.68L424.92 217.56C424.8 217.44 424.68 217.32 424.56 217.2L424.44 217.08L424.32 216.96C424.2 216.84 424.2 216.72 424.08 216.6C423.96 216.48 423.84 216.36 423.72 216.24C424.08 215.4 424.68 214.68 425.52 214.2C426 213.96 426.6 213.84 427.2 213.84C427.32 213.84 427.44 213.84 427.44 213.96C427.68 213.96 427.56 213.96 427.68 214.08C427.92 214.2 428.04 214.2 428.28 214.44L428.4 214.56C428.52 214.68 428.52 214.8 428.64 214.92C428.64 214.92 428.76 215.04 428.76 215.16C428.76 215.28 428.88 215.4 428.88 215.64C428.88 215.64 428.88 215.76 428.88 215.88V216C429 215.88 429 215.88 429 216Z" fill="#CFE1EF"/>
<path d="M436.2 224.16C435.96 223.8 435.36 223.68 435 223.92C433.32 225.12 431.88 226.68 430.32 228C429.96 228.24 429.96 228.84 430.32 229.2C430.68 229.56 431.16 229.56 431.52 229.2C432.24 228.6 433.08 227.88 433.8 227.28C434.52 226.68 435.36 225.96 436.08 225.36C436.44 225 436.44 224.52 436.2 224.16Z" fill="#CFE1EF"/>
<path d="M453.36 218.4C451.44 219 449.52 219.96 447.72 220.92C445.8 221.88 444 222.96 442.32 224.16C438.84 226.56 435.72 229.32 432.96 232.44C432.24 233.16 433.32 234.36 434.04 233.52C436.92 230.64 440.04 228 443.4 225.84C445.08 224.76 446.76 223.68 448.44 222.84C450.24 221.88 452.16 221.16 454.08 220.32C455.28 219.84 454.56 218.04 453.36 218.4Z" fill="#CFE1EF"/>
<path opacity="0.4" d="M212.52 99.9602V184.56C210.72 184.68 208.92 184.92 207.24 185.16C200.16 185.88 193.44 186.72 187.2 187.56C183.24 188.04 179.52 188.64 175.92 189.24C165.72 190.92 156.72 192.72 149.04 194.64C118.08 202.44 106.68 212.52 106.68 223.56V138.96C106.68 122.28 132.6 107.88 212.52 99.9602Z" fill="#2B3990"/>
<path d="M200.64 117.84C200.64 119.16 199.68 120.24 198.24 120.48C129.12 127.56 106.68 140.28 106.68 154.8V149.52C106.68 135 129 122.28 197.76 115.32C199.2 115.08 200.64 116.28 200.64 117.84Z" fill="#27AAE1"/>
<path d="M200.64 128.4C200.64 129.72 199.68 130.8 198.24 131.04C129.12 138.12 106.68 150.84 106.68 165.36V160.08C106.68 145.56 129 132.84 197.76 125.88C199.2 125.64 200.64 126.84 200.64 128.4Z" fill="#27AAE1"/>
<path d="M200.64 138.96C200.64 140.28 199.68 141.36 198.24 141.6C129.12 148.68 106.68 161.4 106.68 175.92V170.64C106.68 156.12 129 143.4 197.76 136.44C199.2 136.2 200.64 137.4 200.64 138.96Z" fill="#27AAE1"/>
<path d="M200.64 149.52C200.64 150.84 199.68 151.92 198.24 152.16C129.12 159.24 106.68 171.96 106.68 186.48V181.2C106.68 166.68 129 153.96 197.76 147C199.2 146.76 200.64 147.96 200.64 149.52Z" fill="#27AAE1"/>
<path d="M200.64 160.08C200.64 161.4 199.68 162.48 198.24 162.72C129.12 169.8 106.68 182.52 106.68 197.04V191.76C106.68 177.24 129 164.52 197.76 157.56C199.2 157.32 200.64 158.52 200.64 160.08Z" fill="#27AAE1"/>
<path d="M148.56 178.92C148.56 177.24 147 176.04 145.44 176.4C117.12 183.36 106.68 192.48 106.68 202.32V207.6C106.68 197.64 117.36 188.4 146.64 181.44C147.72 181.08 148.56 180.12 148.56 178.92Z" fill="#27AAE1"/>
<path d="M129.72 164.64V249.24C115.2 241.92 106.68 233.16 106.68 223.68V139.08C106.68 148.56 115.2 157.44 129.72 164.64Z" fill="#9BC3EA"/>
<path d="M282.021 166.988C285.24 160.373 282.486 152.402 275.871 149.183C269.257 145.965 261.285 148.718 258.067 155.333C254.848 161.948 257.602 169.919 264.216 173.138C270.831 176.356 278.803 173.603 282.021 166.988Z" fill="#345870"/>
<path d="M253.92 165.96C256.08 173.04 252 180.48 244.92 182.64C237.84 184.8 230.4 180.72 228.24 173.64C226.08 166.56 230.16 159.12 237.24 156.96C244.32 154.92 251.76 158.88 253.92 165.96Z" fill="#345870"/>
<path d="M282.6 124.68L211.92 145.92C204.12 148.32 199.68 156.48 202.08 164.28L204.24 171.6C206.64 179.76 215.28 184.32 223.32 181.92L292.8 161.04C300.96 158.64 305.52 150 303.12 141.96L300.96 134.64C298.68 126.72 290.4 122.4 282.6 124.68Z" fill="#345870"/>
<path d="M281.52 119.16L209.76 140.76C202.32 143.04 198 150.96 200.28 158.4L202.32 165.24C204.6 172.68 212.52 177 219.96 174.72L291.72 153.12C299.16 150.84 303.48 142.92 301.2 135.48L299.16 128.64C297 121.2 289.08 116.88 281.52 119.16Z" fill="#69A0E1"/>
<path d="M250.2 163.2C251.76 168.36 248.76 173.88 243.6 175.44C238.44 177 232.92 174 231.36 168.84C229.8 163.68 232.8 158.16 237.96 156.6C243.24 155.04 248.64 158.04 250.2 163.2Z" fill="#5186C7"/>
<path d="M277.2 155.04C278.76 160.2 275.76 165.72 270.6 167.28C265.44 168.84 259.92 165.84 258.36 160.68C256.8 155.52 259.8 150 264.96 148.44C270.12 147 275.64 149.88 277.2 155.04Z" fill="#5186C7"/>
<path d="M273.84 155.64C274.8 159 273 162.48 269.64 163.44C266.28 164.4 262.8 162.6 261.84 159.24C260.88 155.88 262.68 152.4 266.04 151.44C269.4 150.48 272.88 152.28 273.84 155.64Z" fill="white"/>
<path d="M246.96 163.68C247.92 167.04 246.12 170.52 242.76 171.48C239.4 172.44 235.92 170.64 234.96 167.28C234 163.92 235.8 160.44 239.16 159.48C242.52 158.52 246 160.44 246.96 163.68Z" fill="white"/>
<path d="M231.84 158.64C230.76 166.08 223.8 171.24 216.36 170.16C208.92 169.08 203.76 162.12 204.84 154.68C205.92 147.24 212.88 142.08 220.32 143.16C227.76 144.24 232.92 151.2 231.84 158.64Z" fill="#5186C7"/>
<path d="M294.998 144.517C299.075 138.157 297.224 129.695 290.863 125.617C284.503 121.539 276.041 123.39 271.963 129.751C267.886 136.112 269.737 144.574 276.097 148.651C282.458 152.729 290.92 150.878 294.998 144.517Z" fill="#5186C7"/>
<path d="M264.24 146.52L238.8 154.2C237 154.68 235.2 153.72 234.6 151.92L230.16 137.28C229.68 135.48 230.64 133.68 232.44 133.08L257.88 125.4C259.68 124.92 261.48 125.88 262.08 127.68L266.52 142.32C267 144.12 266.04 146.04 264.24 146.52Z" fill="#345870"/>
<path d="M263.16 144.12L238.2 151.56C236.28 152.16 234.24 151.08 233.64 149.16L229.56 135.6C228.96 133.68 230.04 131.64 231.96 131.04L256.92 123.6C258.84 123 260.88 124.08 261.48 126L265.56 139.56C266.16 141.48 265.08 143.52 263.16 144.12Z" fill="#5186C7"/>
<path d="M258 128.28L261.12 138.6C261.48 139.92 260.76 141.48 259.32 141.84L240.48 147.48C240 147.6 239.64 147.6 239.16 147.48C238.32 147.24 237.48 146.64 237.24 145.68L234.12 135.36C233.88 134.64 234.36 133.8 235.08 133.56L256.2 127.2C256.92 127.08 257.76 127.56 258 128.28Z" fill="#D9DADE"/>
<path d="M254.28 127.92L249.96 144.6L240.96 147.36L245.28 130.56L254.28 127.92Z" fill="white"/>
<path d="M243.36 131.16L239.16 147.6C238.32 147.36 237.48 146.76 237.24 145.8L236.04 141.6L238.32 132.72L243.36 131.16Z" fill="white"/>
<path d="M258.36 129.48L259.8 134.28L257.76 142.32L254.76 143.16L258.36 129.48Z" fill="white"/>
<path d="M248.88 154.44C249 154.92 248.76 155.52 248.28 155.64C247.8 155.76 247.2 155.52 247.08 155.04C246.96 154.56 247.2 153.96 247.68 153.84C248.16 153.6 248.64 153.96 248.88 154.44Z" fill="url(#paint12_linear_12_3)"/>
<path d="M251.16 156.48C251.28 156.96 251.04 157.56 250.56 157.68C250.08 157.8 249.48 157.56 249.36 157.08C249.24 156.6 249.48 156 249.96 155.88C250.44 155.76 251.04 156 251.16 156.48Z" fill="url(#paint13_linear_12_3)"/>
<path d="M252 153.48C252.12 153.96 251.88 154.56 251.4 154.68C250.92 154.8 250.32 154.56 250.2 154.08C250.08 153.6 250.32 153 250.8 152.88C251.28 152.64 251.88 153 252 153.48Z" fill="url(#paint14_linear_12_3)"/>
<path d="M254.28 155.52C254.4 156 254.16 156.6 253.68 156.72C253.2 156.84 252.6 156.6 252.48 156.12C252.36 155.64 252.6 155.04 253.08 154.92C253.68 154.8 254.16 155.04 254.28 155.52Z" fill="url(#paint15_linear_12_3)"/>
<path d="M255.12 152.52C255.24 153 255 153.6 254.52 153.72C254.04 153.84 253.44 153.6 253.32 153.12C253.2 152.64 253.44 152.04 253.92 151.92C254.52 151.68 255 152.04 255.12 152.52Z" fill="url(#paint16_linear_12_3)"/>
<path d="M257.52 154.56C257.64 155.04 257.4 155.64 256.92 155.76C256.44 155.88 255.84 155.64 255.72 155.16C255.6 154.68 255.84 154.08 256.32 153.96C256.8 153.84 257.28 154.08 257.52 154.56Z" fill="url(#paint17_linear_12_3)"/>
<path d="M258.36 151.56C258.48 152.04 258.24 152.64 257.76 152.76C257.28 152.88 256.68 152.64 256.56 152.16C256.44 151.68 256.68 151.08 257.16 150.96C257.64 150.84 258.12 151.08 258.36 151.56Z" fill="url(#paint18_linear_12_3)"/>
<path d="M219.24 151.68L217.92 153.24C217.68 153.48 217.44 153.6 217.2 153.48L215.16 152.88C214.8 152.76 214.56 152.52 214.44 152.16L213.6 149.28C213.48 148.8 213.6 148.2 214.08 148.08L217.44 147.12C217.92 147 218.4 147.36 218.52 147.84L219.36 150.72C219.6 151.08 219.48 151.44 219.24 151.68Z" fill="white"/>
<path d="M217.44 160.2L218.76 158.64C219 158.4 219.24 158.28 219.48 158.4L221.52 159C221.88 159.12 222.12 159.36 222.24 159.72L223.08 162.6C223.2 163.08 223.08 163.68 222.6 163.8L219.24 164.76C218.76 164.88 218.28 164.52 218.16 164.04L217.32 161.16C217.2 160.92 217.2 160.56 217.44 160.2Z" fill="white"/>
<path d="M213.6 155.76L215.16 156.84C215.4 156.96 215.4 157.2 215.4 157.44L214.68 159.24C214.56 159.48 214.32 159.72 213.96 159.84L211.08 160.68C210.6 160.8 210 160.68 209.88 160.32L209.04 157.56C208.92 157.2 209.28 156.72 209.76 156.6L212.64 155.76C213 155.64 213.36 155.64 213.6 155.76Z" fill="white"/>
<path d="M223.2 156.6L221.64 155.52C221.4 155.4 221.4 155.16 221.4 154.92L222.12 153.12C222.24 152.88 222.48 152.64 222.84 152.52L225.72 151.68C226.2 151.56 226.8 151.68 226.92 152.04L227.76 154.8C227.88 155.16 227.52 155.64 227.04 155.76L224.16 156.6C223.8 156.84 223.44 156.84 223.2 156.6Z" fill="white"/>
<path d="M227.04 143.16C226.08 143.4 225.12 142.92 224.76 141.96L224.4 140.76C224.16 139.8 224.64 138.84 225.6 138.48C226.56 138.24 227.52 138.72 227.88 139.68L228.24 140.88C228.6 141.84 228 142.92 227.04 143.16Z" fill="#210042"/>
<path d="M227.88 139.8C228.12 140.76 227.64 141.72 226.68 142.08C225.72 142.32 224.76 141.84 224.4 140.88C224.16 139.92 224.64 138.96 225.6 138.6C226.68 138.24 227.64 138.84 227.88 139.8Z" fill="white"/>
<path d="M268.44 130.8C267.48 131.04 266.52 130.56 266.16 129.6L265.8 128.4C265.56 127.44 266.04 126.48 267 126.12C267.96 125.88 268.92 126.36 269.28 127.32L269.64 128.52C270 129.48 269.4 130.44 268.44 130.8Z" fill="#210042"/>
<path d="M269.28 127.32C269.52 128.28 269.04 129.24 268.08 129.6C267.12 129.84 266.16 129.36 265.8 128.4C265.56 127.44 266.04 126.48 267 126.12C268.08 125.76 269.04 126.36 269.28 127.32Z" fill="white"/>
<path d="M281.4 133.44C283.189 133.44 284.64 131.989 284.64 130.2C284.64 128.411 283.189 126.96 281.4 126.96C279.611 126.96 278.16 128.411 278.16 130.2C278.16 131.989 279.611 133.44 281.4 133.44Z" fill="white"/>
<path d="M288.346 145.569C289.188 143.99 288.591 142.028 287.012 141.185C285.433 140.343 283.47 140.941 282.628 142.52C281.786 144.099 282.384 146.061 283.962 146.903C285.541 147.745 287.504 147.148 288.346 145.569Z" fill="white"/>
<path d="M279.72 138.24C280.2 139.92 279.24 141.84 277.56 142.32C275.88 142.8 273.96 141.84 273.48 140.16C273 138.48 273.96 136.56 275.64 136.08C277.32 135.48 279.12 136.56 279.72 138.24Z" fill="white"/>
<path d="M293.52 134.16C294 135.84 293.04 137.76 291.36 138.24C289.68 138.72 287.76 137.76 287.28 136.08C286.8 134.4 287.76 132.48 289.44 132C291.12 131.4 292.92 132.36 293.52 134.16Z" fill="white"/>
<path d="M277.271 137.725L275.088 138.381L275.744 140.565L277.927 139.909L277.271 137.725Z" fill="#69A0E1"/>
<path d="M282.069 128.737L279.885 129.393L280.541 131.576L282.724 130.92L282.069 128.737Z" fill="#E47272"/>
<path d="M286.276 142.647L284.093 143.302L284.749 145.486L286.932 144.83L286.276 142.647Z" fill="#E05C5C"/>
<path d="M291.073 133.662L288.889 134.318L289.545 136.502L291.728 135.846L291.073 133.662Z" fill="#5186C7"/>
<path d="M296.76 134.04C295.08 129.48 291 126 285.84 125.16C278.4 124.08 271.44 129.24 270.36 136.68C270.12 138.48 270.24 140.16 270.6 141.72C269.88 139.68 269.52 137.4 269.88 135.12C270.96 127.68 277.92 122.52 285.36 123.6C291.12 124.44 295.56 128.64 296.76 134.04Z" fill="#345870"/>
<path d="M231.6 153.6C229.92 149.04 225.84 145.56 220.68 144.72C213.24 143.64 206.28 148.8 205.2 156.24C204.96 158.04 205.08 159.72 205.44 161.28C204.72 159.24 204.36 156.96 204.72 154.68C205.8 147.24 212.76 142.08 220.2 143.16C225.96 144 230.4 148.32 231.6 153.6Z" fill="#345870"/>
<path d="M243.84 236.52V292.44C243.84 295.92 241.68 299.16 238.8 299.76L153 318.12C148.56 319.08 144.84 316.2 144.84 311.76V238.8C144.84 234.36 148.56 230.64 153 230.64L238.8 230.4C241.68 230.28 243.84 233.16 243.84 236.52Z" fill="#F5F9FD"/>
<path d="M243.84 236.52V237.24L144.96 239.76V238.8C144.96 234.36 148.68 230.64 153.12 230.64L238.92 230.4C241.68 230.28 243.84 233.16 243.84 236.52Z" fill="#2B3990"/>
<path d="M157.92 235.08C157.92 236.4 156.84 237.48 155.52 237.48C154.2 237.48 153.12 236.4 153.12 235.08C153.12 233.76 154.2 232.68 155.52 232.68C156.84 232.68 157.92 233.76 157.92 235.08Z" fill="white"/>
<path d="M166.08 234.96C166.08 236.28 165 237.36 163.8 237.36C162.48 237.36 161.52 236.4 161.52 235.08C161.52 233.76 162.6 232.68 163.8 232.68C165.12 232.56 166.08 233.64 166.08 234.96Z" fill="white"/>
<path d="M174 234.84C174 236.16 173.04 237.12 171.84 237.24C170.64 237.24 169.56 236.28 169.56 234.96C169.56 233.64 170.52 232.68 171.84 232.56C173.04 232.56 174 233.52 174 234.84Z" fill="white"/>
<path d="M195.24 256.8L210.48 264.84C211.92 265.56 211.92 267.96 210.48 269.04L195.24 280.2C193.8 281.28 191.88 280.32 191.88 278.52V259.32C192 257.4 193.8 256.08 195.24 256.8Z" fill="#2B3990"/>
<path d="M238.44 299.76L153.72 318C148.92 319.08 144.96 315.96 144.96 311.16V304.92L243.84 287.28V292.08C243.84 295.68 241.44 299.16 238.44 299.76Z" fill="#69A0E1"/>
<path d="M209.88 300.36C209.88 299.64 209.88 299.04 209.88 298.32L164.64 307.2C163.92 307.32 163.56 308.04 163.68 308.64C163.8 309.24 164.28 309.72 164.88 309.72C165 309.72 165 309.72 165.12 309.72L209.88 300.96C209.88 300.72 209.88 300.48 209.88 300.36Z" fill="#2B3990"/>
<path d="M238.8 292.68L211.56 298.08C211.68 298.8 211.68 299.52 211.8 300.24C211.8 300.36 211.8 300.48 211.8 300.6L239.28 295.2C240 295.08 240.36 294.36 240.24 293.76C240.12 292.92 239.52 292.44 238.8 292.68Z" fill="#FFFFFD"/>
<path d="M152.64 312.12C152.04 312.12 151.56 311.76 151.44 311.04C151.32 310.32 151.8 309.72 152.4 309.6L175.08 305.16C175.8 305.04 176.4 305.52 176.52 306.12C176.64 306.84 176.16 307.44 175.56 307.56L152.88 312C152.76 312.12 152.76 312.12 152.64 312.12Z" fill="#27AAE1"/>
<path d="M213.96 298.8C213.96 301.32 212.04 303.72 209.64 304.2C207.24 304.68 205.2 303 205.2 300.48C205.2 297.96 207.12 295.56 209.64 295.08C212.04 294.6 213.96 296.28 213.96 298.8Z" fill="#27AAE1"/>
<path d="M211.8 299.16C211.8 300.36 210.84 301.56 209.64 301.8C208.44 302.04 207.48 301.2 207.48 300C207.48 298.8 208.44 297.6 209.64 297.36C210.84 297.12 211.8 297.96 211.8 299.16Z" fill="#FFFFFD"/>
<path opacity="0.4" d="M114.12 282.6C114.24 282.6 114.24 282.72 114.12 282.6L115.08 314.76C114.84 305.16 130.44 295.92 156 288.6L155.04 256.44C129.48 263.76 113.88 273 114.12 282.6Z" fill="url(#paint19_linear_12_3)"/>
<path opacity="0.4" d="M144.96 270.24C128.28 275.88 117.36 282.6 114.6 289.56C114.6 291 114.72 292.44 114.72 293.88C117.84 286.8 129.12 280.2 146.4 274.44C147.36 274.08 147.96 273.24 147.96 272.28C147.84 270.72 146.4 269.76 144.96 270.24Z" fill="url(#paint20_linear_12_3)"/>
<path opacity="0.4" d="M144.96 278.88C128.64 284.4 117.96 290.88 114.84 297.6C114.84 299.16 114.84 300.6 114.84 302.16C118.08 295.2 129.36 288.6 146.4 283.08C147.36 282.72 147.96 281.88 147.96 280.92C147.84 279.36 146.4 278.4 144.96 278.88Z" fill="url(#paint21_linear_12_3)"/>
<path d="M114.12 281.04L115.08 313.2C115.56 329.64 161.88 342.12 225 344.64L224.04 312.48C160.92 309.84 114.6 297.36 114.12 281.04Z" fill="#2B3990"/>
<path d="M325.68 190.08C323.28 190.08 321.12 189.24 319.32 187.68L322.68 183.84C323.64 184.68 324.72 185.04 326.04 184.92C327.24 184.8 328.32 184.32 329.16 183.36C330 182.4 330.36 181.32 330.36 180C330.24 178.8 329.76 177.72 328.8 176.88L332.16 173.04C334.08 174.72 335.28 177.12 335.4 179.64C335.52 182.16 334.68 184.68 333 186.6C331.32 188.52 328.92 189.72 326.4 189.84C326.16 190.08 325.92 190.08 325.68 190.08Z" fill="#CFE1EF"/>
<path d="M534.12 190.08C532.92 190.08 531.6 189.84 530.4 189.36C528 188.4 526.2 186.48 525.24 184.08C524.28 181.68 524.28 179.04 525.24 176.76C526.2 174.36 528.12 172.56 530.52 171.6L532.44 176.28C531.36 176.76 530.4 177.6 529.92 178.8C529.44 179.88 529.44 181.2 529.92 182.28C530.4 183.36 531.24 184.32 532.44 184.8C533.52 185.28 534.84 185.28 535.92 184.8L537.84 189.48C536.52 189.84 535.32 190.08 534.12 190.08Z" fill="white"/>
<path d="M171.72 81.2401C170.52 81.2401 169.2 81.0001 168 80.5201C165.6 79.5601 163.8 77.6401 162.84 75.2401C160.8 70.3201 163.2 64.6801 168.12 62.6401L170.04 67.3201C167.76 68.2801 166.56 70.9201 167.52 73.3201C168.48 75.6001 171.12 76.8001 173.52 75.8401L175.44 80.5201C174.24 81.0001 173.04 81.2401 171.72 81.2401Z" fill="white"/>
<path d="M34.32 227.16C31.8 227.16 29.16 226.08 27.24 224.16L30.96 220.68C32.64 222.48 35.52 222.6 37.44 220.92C39.24 219.24 39.36 216.24 37.68 214.44L41.4 210.96C45 214.8 44.76 220.92 40.92 224.52C39.12 226.32 36.72 227.16 34.32 227.16Z" fill="#CFE1EF"/>
<path d="M198.72 205.68C193.08 205.68 193.08 214.44 198.72 214.44C204.36 214.44 204.36 205.68 198.72 205.68Z" fill="white"/>
<path d="M523.2 132.72C517.56 132.72 517.56 141.48 523.2 141.48C528.84 141.48 528.84 132.72 523.2 132.72Z" fill="white"/>
<path d="M415.56 338.28C409.92 338.28 409.92 347.04 415.56 347.04C421.2 347.04 421.2 338.28 415.56 338.28Z" fill="white"/>
<path d="M101.88 101.04C96.24 101.04 96.24 109.8 101.88 109.8C107.52 109.8 107.52 101.04 101.88 101.04Z" fill="white"/>
<path d="M300.36 51.1201C297.12 51.1201 297.12 56.1601 300.36 56.1601C303.6 56.1601 303.6 51.1201 300.36 51.1201Z" fill="white"/>
<path d="M278.52 205.44C275.28 205.44 275.28 210.48 278.52 210.48C281.76 210.48 281.76 205.44 278.52 205.44Z" fill="white"/>
<path d="M378.72 184.92C375.48 184.92 375.48 189.96 378.72 189.96C381.96 189.96 381.96 184.92 378.72 184.92Z" fill="white"/>
<path d="M402 113.64C398.76 113.64 398.76 118.68 402 118.68C405.24 118.68 405.24 113.64 402 113.64Z" fill="white"/>
<path d="M484.56 58.2002C481.32 58.2002 481.32 63.2402 484.56 63.2402C487.8 63.1202 487.8 58.2002 484.56 58.2002Z" fill="white"/>
<path d="M467.28 259.56C464.04 259.56 464.04 264.6 467.28 264.6C470.52 264.6 470.52 259.56 467.28 259.56Z" fill="white"/>
<path d="M372.12 277.2C368.88 277.2 368.88 282.24 372.12 282.24C375.36 282.24 375.36 277.2 372.12 277.2Z" fill="white"/>
<path d="M216.48 357C213.24 357 213.24 362.04 216.48 362.04C219.72 361.92 219.72 357 216.48 357Z" fill="white"/>
<path d="M107.4 255.36C104.16 255.36 104.16 260.4 107.4 260.4C110.64 260.4 110.64 255.36 107.4 255.36Z" fill="white"/>
<path d="M43.56 166.8C40.32 166.8 40.32 171.84 43.56 171.84C46.8 171.84 46.8 166.8 43.56 166.8Z" fill="white"/>
<path d="M205.8 73.5601C202.56 73.5601 202.56 78.6001 205.8 78.6001C209.04 78.6001 209.04 73.5601 205.8 73.5601Z" fill="white"/>
<path d="M522.72 217.08C519.48 217.08 519.48 222.12 522.72 222.12C525.96 222.12 525.96 217.08 522.72 217.08Z" fill="white"/>
<defs>
<linearGradient id="paint0_linear_12_3" x1="309.788" y1="125.421" x2="366.745" y2="125.421" gradientUnits="userSpaceOnUse">
<stop stop-color="#9BC3EA"/>
<stop offset="0.1927" stop-color="#A2C7EB"/>
<stop offset="0.464" stop-color="#B4D2EF"/>
<stop offset="0.7805" stop-color="#D2E5F5"/>
<stop offset="1" stop-color="#EBF4FA"/>
</linearGradient>
<linearGradient id="paint1_linear_12_3" x1="309.868" y1="133.584" x2="366.749" y2="133.584" gradientUnits="userSpaceOnUse">
<stop stop-color="#9BC3EA"/>
<stop offset="0.1927" stop-color="#A2C7EB"/>
<stop offset="0.464" stop-color="#B4D2EF"/>
<stop offset="0.7805" stop-color="#D2E5F5"/>
<stop offset="1" stop-color="#EBF4FA"/>
</linearGradient>
<linearGradient id="paint2_linear_12_3" x1="309.923" y1="141.747" x2="366.742" y2="141.747" gradientUnits="userSpaceOnUse">
<stop stop-color="#9BC3EA"/>
<stop offset="0.1927" stop-color="#A2C7EB"/>
<stop offset="0.464" stop-color="#B4D2EF"/>
<stop offset="0.7805" stop-color="#D2E5F5"/>
<stop offset="1" stop-color="#EBF4FA"/>
</linearGradient>
<linearGradient id="paint3_linear_12_3" x1="344.935" y1="150.656" x2="366.734" y2="150.656" gradientUnits="userSpaceOnUse">
<stop stop-color="#9BC3EA"/>
<stop offset="0.1927" stop-color="#A2C7EB"/>
<stop offset="0.464" stop-color="#B4D2EF"/>
<stop offset="0.7805" stop-color="#D2E5F5"/>
<stop offset="1" stop-color="#EBF4FA"/>
</linearGradient>
<linearGradient id="paint4_linear_12_3" x1="365.836" y1="130.287" x2="508.488" y2="182.763" gradientUnits="userSpaceOnUse">
<stop stop-color="#9BC3EA"/>
<stop offset="0.1927" stop-color="#A2C7EB"/>
<stop offset="0.464" stop-color="#B4D2EF"/>
<stop offset="0.7805" stop-color="#D2E5F5"/>
<stop offset="1" stop-color="#EBF4FA"/>
</linearGradient>
<linearGradient id="paint5_linear_12_3" x1="362.414" y1="139.588" x2="505.067" y2="192.064" gradientUnits="userSpaceOnUse">
<stop stop-color="#9BC3EA"/>
<stop offset="0.1927" stop-color="#A2C7EB"/>
<stop offset="0.464" stop-color="#B4D2EF"/>
<stop offset="0.7805" stop-color="#D2E5F5"/>
<stop offset="1" stop-color="#EBF4FA"/>
</linearGradient>
<linearGradient id="paint6_linear_12_3" x1="358.993" y1="148.889" x2="501.645" y2="201.365" gradientUnits="userSpaceOnUse">
<stop stop-color="#9BC3EA"/>
<stop offset="0.1927" stop-color="#A2C7EB"/>
<stop offset="0.464" stop-color="#B4D2EF"/>
<stop offset="0.7805" stop-color="#D2E5F5"/>
<stop offset="1" stop-color="#EBF4FA"/>
</linearGradient>
<linearGradient id="paint7_linear_12_3" x1="355.571" y1="158.19" x2="498.224" y2="210.666" gradientUnits="userSpaceOnUse">
<stop stop-color="#9BC3EA"/>
<stop offset="0.1927" stop-color="#A2C7EB"/>
<stop offset="0.464" stop-color="#B4D2EF"/>
<stop offset="0.7805" stop-color="#D2E5F5"/>
<stop offset="1" stop-color="#EBF4FA"/>
</linearGradient>
<linearGradient id="paint8_linear_12_3" x1="352.15" y1="167.491" x2="494.802" y2="219.966" gradientUnits="userSpaceOnUse">
<stop stop-color="#9BC3EA"/>
<stop offset="0.1927" stop-color="#A2C7EB"/>
<stop offset="0.464" stop-color="#B4D2EF"/>
<stop offset="0.7805" stop-color="#D2E5F5"/>
<stop offset="1" stop-color="#EBF4FA"/>
</linearGradient>
<linearGradient id="paint9_linear_12_3" x1="348.728" y1="176.792" x2="491.381" y2="229.268" gradientUnits="userSpaceOnUse">
<stop stop-color="#9BC3EA"/>
<stop offset="0.1927" stop-color="#A2C7EB"/>
<stop offset="0.464" stop-color="#B4D2EF"/>
<stop offset="0.7805" stop-color="#D2E5F5"/>
<stop offset="1" stop-color="#EBF4FA"/>
</linearGradient>
<linearGradient id="paint10_linear_12_3" x1="423.905" y1="257.196" x2="446.788" y2="257.196" gradientUnits="userSpaceOnUse">
<stop stop-color="#9BC3EA"/>
<stop offset="0.1927" stop-color="#A2C7EB"/>
<stop offset="0.464" stop-color="#B4D2EF"/>
<stop offset="0.7805" stop-color="#D2E5F5"/>
<stop offset="1" stop-color="#EBF4FA"/>
</linearGradient>
<linearGradient id="paint11_linear_12_3" x1="423.811" y1="267.442" x2="446.788" y2="267.442" gradientUnits="userSpaceOnUse">
<stop stop-color="#9BC3EA"/>
<stop offset="0.1927" stop-color="#A2C7EB"/>
<stop offset="0.464" stop-color="#B4D2EF"/>
<stop offset="0.7805" stop-color="#D2E5F5"/>
<stop offset="1" stop-color="#EBF4FA"/>
</linearGradient>
<linearGradient id="paint12_linear_12_3" x1="262.105" y1="144.657" x2="243.409" y2="157.867" gradientUnits="userSpaceOnUse">
<stop stop-color="#1C0035"/>
<stop offset="1" stop-color="#46008D"/>
</linearGradient>
<linearGradient id="paint13_linear_12_3" x1="263.865" y1="147.148" x2="245.169" y2="160.358" gradientUnits="userSpaceOnUse">
<stop stop-color="#1C0035"/>
<stop offset="1" stop-color="#46008D"/>
</linearGradient>
<linearGradient id="paint14_linear_12_3" x1="262.71" y1="145.513" x2="244.014" y2="158.723" gradientUnits="userSpaceOnUse">
<stop stop-color="#1C0035"/>
<stop offset="1" stop-color="#46008D"/>
</linearGradient>
<linearGradient id="paint15_linear_12_3" x1="264.469" y1="148.004" x2="245.774" y2="161.214" gradientUnits="userSpaceOnUse">
<stop stop-color="#1C0035"/>
<stop offset="1" stop-color="#46008D"/>
</linearGradient>
<linearGradient id="paint16_linear_12_3" x1="263.314" y1="146.369" x2="244.618" y2="159.579" gradientUnits="userSpaceOnUse">
<stop stop-color="#1C0035"/>
<stop offset="1" stop-color="#46008D"/>
</linearGradient>
<linearGradient id="paint17_linear_12_3" x1="265.074" y1="148.86" x2="246.378" y2="162.07" gradientUnits="userSpaceOnUse">
<stop stop-color="#1C0035"/>
<stop offset="1" stop-color="#46008D"/>
</linearGradient>
<linearGradient id="paint18_linear_12_3" x1="263.919" y1="147.224" x2="245.223" y2="160.434" gradientUnits="userSpaceOnUse">
<stop stop-color="#1C0035"/>
<stop offset="1" stop-color="#46008D"/>
</linearGradient>
<linearGradient id="paint19_linear_12_3" x1="114.717" y1="276.465" x2="156.966" y2="295.408" gradientUnits="userSpaceOnUse">
<stop stop-color="#9BC3EA"/>
<stop offset="0.1927" stop-color="#A2C7EB"/>
<stop offset="0.464" stop-color="#B4D2EF"/>
<stop offset="0.7805" stop-color="#D2E5F5"/>
<stop offset="1" stop-color="#EBF4FA"/>
</linearGradient>
<linearGradient id="paint20_linear_12_3" x1="108.656" y1="280.676" x2="145.352" y2="282.797" gradientUnits="userSpaceOnUse">
<stop stop-color="#9BC3EA"/>
<stop offset="0.1927" stop-color="#A2C7EB"/>
<stop offset="0.464" stop-color="#B4D2EF"/>
<stop offset="0.7805" stop-color="#D2E5F5"/>
<stop offset="1" stop-color="#EBF4FA"/>
</linearGradient>
<linearGradient id="paint21_linear_12_3" x1="108.165" y1="289.173" x2="144.86" y2="291.295" gradientUnits="userSpaceOnUse">
<stop stop-color="#9BC3EA"/>
<stop offset="0.1927" stop-color="#A2C7EB"/>
<stop offset="0.464" stop-color="#B4D2EF"/>
<stop offset="0.7805" stop-color="#D2E5F5"/>
<stop offset="1" stop-color="#EBF4FA"/>
</linearGradient>
</defs>
</svg>
