<svg width="600" height="600" viewBox="0 0 600 600" fill="none" xmlns="http://www.w3.org/2000/svg">
<path d="M249.48 449.88C347.5 449.88 426.96 370.419 426.96 272.4C426.96 174.38 347.5 94.9199 249.48 94.9199C151.46 94.9199 72 174.38 72 272.4C72 370.419 151.46 449.88 249.48 449.88Z" fill="#4254AD" fill-opacity="0.1"/>
<path d="M362.04 509.52C416.517 509.52 460.68 465.357 460.68 410.88C460.68 356.403 416.517 312.24 362.04 312.24C307.563 312.24 263.4 356.403 263.4 410.88C263.4 465.357 307.563 509.52 362.04 509.52Z" fill="#1B75BC" fill-opacity="0.1"/>
<path opacity="0.25" d="M534.12 126.72H526.2C524.76 126.72 523.56 125.52 523.56 124.08V116.16C523.56 114.72 524.76 113.52 526.2 113.52H534.12C535.56 113.52 536.76 114.72 536.76 116.16V124.08C536.64 125.52 535.56 126.72 534.12 126.72Z" fill="#96C1FA"/>
<path opacity="0.25" d="M339.36 101.52H331.44C330 101.52 328.8 100.32 328.8 98.8801V90.9601C328.8 89.5201 330 88.3201 331.44 88.3201H339.36C340.8 88.3201 342 89.5201 342 90.9601V98.8801C342 100.32 340.8 101.52 339.36 101.52Z" fill="#96C1FA"/>
<path opacity="0.25" d="M112.56 133.68H91.5599C90.1199 133.68 88.9199 132.48 88.9199 131.04V110.04C88.9199 108.6 90.1199 107.4 91.5599 107.4H112.56C114 107.4 115.2 108.6 115.2 110.04V131.04C115.2 132.6 114.12 133.68 112.56 133.68Z" fill="#96C1FA"/>
<path opacity="0.25" d="M99.4799 120.6H65.2799C63.8399 120.6 62.6399 119.4 62.6399 117.96V83.7601C62.6399 82.3201 63.8399 81.1201 65.2799 81.1201H99.4799C100.92 81.1201 102.12 82.3201 102.12 83.7601V117.96C102.12 119.4 100.92 120.6 99.4799 120.6Z" fill="#27AAE1"/>
<path opacity="0.25" d="M489.96 472.68H510.96C512.4 472.68 513.6 471.48 513.6 470.04V449.04C513.6 447.6 512.4 446.4 510.96 446.4H489.96C488.52 446.4 487.32 447.6 487.32 449.04V470.04C487.44 471.48 488.52 472.68 489.96 472.68Z" fill="#2B3990"/>
<path opacity="0.25" d="M503.16 459.48H537.36C538.8 459.48 540 458.28 540 456.84V422.64C540 421.2 538.8 420 537.36 420H503.16C501.72 420 500.52 421.2 500.52 422.64V456.84C500.52 458.4 501.72 459.48 503.16 459.48Z" fill="#2B3990"/>
<path opacity="0.25" d="M527.52 168.36H506.4C504.96 168.36 503.76 167.16 503.76 165.72V144.72C503.76 143.28 504.96 142.08 506.4 142.08H527.4C528.84 142.08 530.04 143.28 530.04 144.72V165.72C530.16 167.16 528.96 168.36 527.52 168.36Z" fill="#96C1FA"/>
<path opacity="0.25" d="M131.76 477.6H110.64C109.2 477.6 108 476.4 108 474.96V453.96C108 452.52 109.2 451.32 110.64 451.32H131.64C133.08 451.32 134.28 452.52 134.28 453.96V474.96C134.28 476.4 133.2 477.6 131.76 477.6Z" fill="#1B75BC"/>
<path opacity="0.25" d="M86.28 440.4H78.36C76.92 440.4 75.72 439.2 75.72 437.76V429.84C75.72 428.4 76.92 427.2 78.36 427.2H86.28C87.72 427.2 88.92 428.4 88.92 429.84V437.76C88.92 439.2 87.72 440.4 86.28 440.4Z" fill="#1B75BC"/>
<path opacity="0.25" d="M524.16 341.04H516.24C514.8 341.04 513.6 339.84 513.6 338.4V330.48C513.6 329.04 514.8 327.84 516.24 327.84H524.16C525.6 327.84 526.8 329.04 526.8 330.48V338.4C526.8 339.84 525.6 341.04 524.16 341.04Z" fill="#1B75BC"/>
<path d="M224.16 169.32V177.6C247.32 175.68 273 174.72 300 174.72C327 174.72 352.68 175.8 375.84 177.6V169.32C375.84 166.56 373.68 164.28 371.04 164.04C349.08 162.36 325.2 161.52 300 161.52C274.8 161.52 250.92 162.48 228.96 164.04C226.2 164.28 224.16 166.56 224.16 169.32Z" fill="#96C1FA"/>
<path d="M354.12 201.72V244.44C356.76 244.56 359.4 244.8 362.04 244.92V202.2C359.4 202.08 356.76 201.84 354.12 201.72Z" fill="#9973D1"/>
<path d="M345.6 185.28V243.96C342.96 243.84 340.32 243.72 337.68 243.6V184.92C340.32 185.04 342.96 185.16 345.6 185.28Z" fill="#9973D1"/>
<path d="M329.16 192.72V243.48C326.52 243.36 323.88 243.36 321.24 243.24V192.48C323.88 192.6 326.52 192.6 329.16 192.72Z" fill="#9973D1"/>
<path d="M304.92 200.28V243C307.56 243 310.2 243 312.84 243V200.4C310.08 200.28 307.56 200.28 304.92 200.28Z" fill="#9973D1"/>
<path d="M296.4 208.32V243C293.76 243 291.12 243 288.48 243V208.32C291.12 208.32 293.76 208.32 296.4 208.32Z" fill="#9973D1"/>
<path d="M354.12 225.48V244.44C356.76 244.56 359.4 244.8 362.04 244.92V225.72C359.4 225.6 356.76 225.6 354.12 225.48Z" fill="#9973D1"/>
<path d="M345.6 205.92V243.96C342.96 243.84 340.32 243.72 337.68 243.6V205.68C340.32 205.8 342.96 205.92 345.6 205.92Z" fill="#9973D1"/>
<path d="M329.16 213.6V243.48C326.52 243.36 323.88 243.36 321.24 243.24V213.48C323.88 213.48 326.52 213.48 329.16 213.6Z" fill="#9973D1"/>
<path d="M304.92 215.76V243C307.56 243 310.2 243 312.84 243V215.76C310.08 215.76 307.56 215.76 304.92 215.76Z" fill="#9973D1"/>
<path d="M296.4 221.04V243.12C293.76 243.12 291.12 243.12 288.48 243.12V221.04C291.12 221.04 293.76 221.04 296.4 221.04Z" fill="#9973D1"/>
<path opacity="0.4" d="M224.16 169.32V246.84C224.16 249.84 226.8 252.36 229.8 252.12C251.52 250.56 275.16 249.6 300 249.6C324.84 249.6 348.6 250.44 370.2 252.12C373.2 252.36 375.84 249.96 375.84 246.84V169.32C375.84 166.56 373.68 164.28 371.04 164.04C349.08 162.36 325.2 161.52 300 161.52C274.8 161.52 250.92 162.48 228.96 164.04C226.2 164.28 224.16 166.56 224.16 169.32Z" fill="#27AAE1"/>
<path d="M230.64 186.72V191.04C245.88 189.96 261.6 189.24 277.92 188.88V184.56C261.72 184.92 245.88 185.64 230.64 186.72Z" fill="#FAFAFF"/>
<path d="M268.68 193.32C255.72 193.68 243 194.4 230.76 195.24V199.56C243 198.6 255.72 198 268.68 197.64V193.32Z" fill="#FAFAFF"/>
<path d="M256.56 202.32C247.8 202.68 239.16 203.16 230.64 203.76V208.08C239.04 207.48 247.68 207 256.56 206.64V202.32Z" fill="#FAFAFF"/>
<path d="M262.44 218.52C251.64 218.88 240.96 219.48 230.64 220.2V224.52C240.96 223.8 251.64 223.2 262.44 222.84V218.52Z" fill="#FAFAFF"/>
<path d="M273 210.24C258.48 210.6 244.32 211.32 230.64 212.28V216.6C244.2 215.64 258.36 214.92 272.88 214.56L273 210.24Z" fill="#FAFAFF"/>
<g opacity="0.6">
<path d="M471 67.2H424.56V113.64H471V67.2Z" stroke="#4254AD" stroke-miterlimit="10" stroke-linecap="round" stroke-linejoin="round"/>
<path d="M454.32 84.24H407.88V130.68H454.32V84.24Z" stroke="#1B75BC" stroke-miterlimit="10" stroke-linecap="round" stroke-linejoin="round"/>
<path d="M454.32 84.2399L471 67.2" stroke="#1B75BC" stroke-miterlimit="10" stroke-linecap="round" stroke-linejoin="round"/>
<path d="M471 113.64L454.32 130.68" stroke="#1B75BC" stroke-miterlimit="10" stroke-linecap="round" stroke-linejoin="round"/>
<path d="M424.56 113.64L407.88 130.68" stroke="#1B75BC" stroke-miterlimit="10" stroke-linecap="round" stroke-linejoin="round"/>
<path d="M407.88 84.2399L424.56 67.2" stroke="#1B75BC" stroke-miterlimit="10" stroke-linecap="round" stroke-linejoin="round"/>
</g>
<g opacity="0.6">
<path d="M201.72 138.36C223.524 138.36 241.2 120.684 241.2 98.8799C241.2 77.0757 223.524 59.3999 201.72 59.3999C179.916 59.3999 162.24 77.0757 162.24 98.8799C162.24 120.684 179.916 138.36 201.72 138.36Z" stroke="#1B75BC" stroke-miterlimit="10"/>
<path d="M201.72 138.36C209.739 138.36 216.24 120.684 216.24 98.8799C216.24 77.0757 209.739 59.3999 201.72 59.3999C193.701 59.3999 187.2 77.0757 187.2 98.8799C187.2 120.684 193.701 138.36 201.72 138.36Z" stroke="#1B75BC" stroke-miterlimit="10"/>
<path d="M201.72 113.4C223.524 113.4 241.2 106.899 241.2 98.8799C241.2 90.8607 223.524 84.3599 201.72 84.3599C179.916 84.3599 162.24 90.8607 162.24 98.8799C162.24 106.899 179.916 113.4 201.72 113.4Z" stroke="#1B75BC" stroke-miterlimit="10"/>
</g>
<path d="M158.64 418.68C158.64 405.96 221.88 395.64 300 395.64C378.12 395.64 441.36 405.96 441.36 418.68" stroke="#27AAE1" stroke-miterlimit="10" stroke-linecap="round" stroke-linejoin="round"/>
<path d="M177.72 489.12C177.72 480 232.44 472.68 300 472.68C367.56 472.68 422.28 480 422.28 489.12" stroke="#27AAE1" stroke-miterlimit="10" stroke-linecap="round" stroke-linejoin="round"/>
<path d="M135.6 343.8C135.6 327.48 209.16 314.16 300 314.16C390.84 314.16 464.4 327.36 464.4 343.8" stroke="#27AAE1" stroke-miterlimit="10" stroke-linecap="round" stroke-linejoin="round"/>
<path d="M255.48 516.6L255.12 535.8L275.88 539.52L277.32 517.32L255.48 516.6Z" fill="#E7B7B7"/>
<path d="M215.52 550.8H276.84C276.84 550.8 278.16 538.44 277.2 535.08C277.08 534.6 276.84 534.24 276.6 534.24C274.44 534.24 273.6 536.88 264.48 536.88C260.52 536.88 258.12 533.76 256.32 532.68C256.08 532.56 255.96 532.44 255.72 532.44C252.24 531.12 253.2 534.84 250.08 537.96C249.6 538.44 249.12 538.92 248.4 539.28C248.16 539.4 247.92 539.52 247.56 539.76C247.44 539.76 247.32 539.88 247.32 539.88C247.2 540 246.96 540 246.72 540.12C246.24 540.36 245.64 540.6 245.04 540.72C244.44 540.96 243.72 541.2 243 541.44C233.04 544.44 215.52 547.92 215.52 550.8Z" fill="#2B3990"/>
<path d="M276.84 550.8H215.52V552.72H276.84V550.8Z" fill="white"/>
<path d="M277.44 541.44C274.8 541.8 272.4 543 270.36 545.16C268.68 546.84 267.6 548.88 266.88 550.8H268.2C268.92 549.12 269.88 547.32 271.32 545.88C272.64 544.56 274.68 542.88 277.56 542.52C277.44 542.16 277.44 541.8 277.44 541.44Z" fill="white"/>
<path d="M251.16 541.92C252.24 540.96 250.68 539.76 249.12 538.8C248.88 539.04 248.64 539.16 248.28 539.4C248.04 539.52 247.8 539.64 247.44 539.88C247.32 539.88 247.2 540 247.2 540C247.08 540.12 246.84 540.12 246.6 540.24C246.12 540.48 245.52 540.72 244.92 540.84C244.32 541.08 243.6 541.32 242.88 541.56C239.28 542.64 234.72 543.84 230.28 544.92C230.28 544.8 249.24 543.6 251.16 541.92Z" fill="white"/>
<path d="M322.92 513.72L329.16 539.52H349.2L343.32 513L322.92 513.72Z" fill="#E7B7B7"/>
<path d="M351.84 550.8H322.56C322.56 545.76 326.16 540.84 326.4 540.6C326.64 538.32 326.88 536.28 327.12 535.2C327.24 534.72 327.48 534.36 327.72 534.36C329.4 534.36 329.04 536.16 332.28 537.24C332.88 536.76 334.44 535.56 337.32 535.56C340.56 535.56 342.12 537 342.48 537.36C346.68 536.4 347.16 534.36 348.84 534.36C349.08 534.36 349.32 534.72 349.44 535.2C351.84 543 351.84 550.8 351.84 550.8Z" fill="#2B3990"/>
<path d="M351.84 550.8H322.56V552.72H351.84V550.8Z" fill="white"/>
<path d="M332.16 541.68C337.08 540.48 341.88 542.28 341.88 542.28C341.88 542.28 339.6 545.52 333.84 545.52C332.16 545.52 332.16 541.68 332.16 541.68Z" fill="white"/>
<path d="M351.12 542.4C348.84 543.36 348 547.68 347.64 550.8H348.84C349.2 547.8 349.92 544.56 351.24 543.6C351.24 543.24 351.12 542.88 351.12 542.4Z" fill="white"/>
<path d="M252.6 435.24C251.88 452.04 251.16 481.32 251.16 518.28C260.4 521.4 273.48 521.28 284.76 519.96L289.68 444.48C289.68 438 291.84 428.88 292.2 397.56C297.48 424.8 300.12 442.44 301.44 451.92C302.76 461.04 309.36 487.08 316.32 518.52C327.96 520.44 345.36 516.12 348.36 513L336.24 448.56C336.24 448.56 329.04 396.96 331.68 388.2C334.2 380.16 335.28 356.16 325.92 344.28H260.64C260.88 344.04 253.2 420.72 252.6 435.24Z" fill="#27AAE1"/>
<path d="M259.68 532.2C255.36 485.16 269.4 331.56 269.4 331.56L286.92 336.84C271.32 412.56 276.48 534.48 276.48 534.48L330 526.32C303.6 445.44 297.12 336.84 297.12 336.84L312.6 339.48C313.44 406.56 344.64 530.52 344.64 530.52" stroke="#27AAE1" stroke-miterlimit="10" stroke-linecap="round" stroke-linejoin="round"/>
<path d="M292.2 397.44C290.28 380.28 290.28 369.96 290.28 369.96" stroke="#193B59" stroke-miterlimit="10" stroke-linecap="round" stroke-linejoin="round"/>
<path d="M317.04 289.68C295.2 268.08 285 238.8 285 238.8C276.48 233.76 270.96 214.2 278.88 203.4C282.24 198.84 286.68 196.44 291.72 195.48C303 193.2 312.72 195.6 318.84 202.68C322.32 206.76 323.16 210.12 324.96 217.68C334.56 245.76 355.44 256.68 355.44 256.68C348.6 254.64 342.96 251.04 338.52 246.96C341.28 250.44 344.52 254.04 348.48 257.76C365.88 273.84 338.88 311.28 317.04 289.68Z" fill="#193B59"/>
<path d="M261.36 278.4C261.36 278.4 242.16 287.52 236.4 286.8C228.12 285.84 195 266.76 195 266.76L201.48 255.24C201.48 255.24 231.72 268.2 234.84 267.84C236.28 267.6 247.2 263.28 258.6 259.44L261.36 278.4Z" fill="#E7B7B7"/>
<path d="M201.48 255.36C201.48 255.36 186.48 245.28 183.24 244.56C180 243.84 168.84 241.08 167.76 241.2C166.32 241.32 165.84 243.36 166.8 244.08C167.64 244.8 178.32 248.16 178.32 248.16C178.32 248.16 165 245.16 162.96 245.4C161.52 245.52 160.68 247.8 162.12 248.64C163.44 249.48 176.52 252.72 176.52 252.72C176.52 252.72 163.56 250.56 162.96 250.56C161.64 250.56 161.28 252.6 162.36 253.08C163.2 253.56 175.08 256.8 175.08 256.8C175.08 256.8 170.88 257.16 170.28 257.28C169.56 257.4 165.6 258.24 165.36 258.36C164.64 258.84 165.12 260.16 166.2 260.16C166.92 260.28 170.28 259.8 170.76 259.8C171 259.8 177.24 260.16 177.96 260.76C185.04 265.56 195.24 267 195.24 267L201.48 255.36Z" fill="#E7B7B7"/>
<path d="M188.52 259.92C185.28 258.12 181.32 252.72 181.32 252.72L175.32 252C174.12 251.16 174.12 249.36 175.92 248.76C177.84 248.16 182.04 248.28 182.04 248.28L187.8 249.96" stroke="#7A1F0C" stroke-width="0.5" stroke-miterlimit="10" stroke-linecap="round" stroke-linejoin="round"/>
<path d="M358.56 284.76C364.8 291.12 351.6 312.72 344.16 306.36C336.6 300 351.6 277.68 358.56 284.76Z" fill="#193B59"/>
<path d="M388.2 339.36C388.68 340.2 392.28 342.72 391.32 347.76C390.84 350.28 392.4 355.2 392.52 356.04C392.76 358.56 394.32 361.92 394.56 362.76C394.68 363.12 396.84 363.24 397.44 360.84C397.68 359.88 397.44 358.56 396.72 356.4C396.36 355.32 396.24 352.08 396.96 351.6C397.92 351.12 398.88 351.12 399.84 352.32C402.48 355.32 406.92 364.68 408 365.4C408.84 365.88 411.24 365.4 410.64 363.12C410.04 360.84 412.32 364.8 413.4 365.76C415.44 367.68 417.12 365.88 416.76 364.56C415.8 361.56 416.16 361.44 417.36 362.28C418.8 363.36 420.6 361.68 419.88 360.24C419.64 359.76 415.56 351.96 417.12 353.16C418.68 354.36 420.6 352.56 419.28 350.64C418.08 349.08 414.48 343.68 413.16 342C411.36 339.84 409.68 336.96 398.52 328.44L388.2 339.36Z" fill="#E7B7B7"/>
<path d="M416.04 361.8C413.76 356.4 408.36 348.24 408.36 348.24" stroke="#7A1F0C" stroke-width="0.5" stroke-miterlimit="10" stroke-linecap="round" stroke-linejoin="round"/>
<path d="M416.64 352.92C414.24 348.96 411.6 345.72 411.6 345.72" stroke="#7A1F0C" stroke-width="0.5" stroke-miterlimit="10" stroke-linecap="round" stroke-linejoin="round"/>
<path d="M410.52 362.28C409.08 356.76 403.44 349.44 403.44 349.44" stroke="#7A1F0C" stroke-width="0.5" stroke-miterlimit="10" stroke-linecap="round" stroke-linejoin="round"/>
<path d="M398.4 328.44L388.2 339.36L353.64 310.2L335.28 296.16L348.24 276.72L353.64 281.52C375.72 302.64 398.4 328.44 398.4 328.44Z" fill="#E7B7B7"/>
<path d="M259.44 349.68C263.28 323.64 263.76 297.24 263.76 297.24C257.88 291 261.6 282.12 261.6 282.12L245.88 286.92C242.4 282.24 240.24 271.8 240.6 265.2C270.72 252 281.4 252 281.4 252C281.4 252 302.28 252.96 323.28 257.64C328.92 258.84 343.32 270.48 358.56 284.76C351.12 281.52 336.96 300.72 344.16 306.36L325.68 290.64C322.68 303.24 320.76 328.44 326.4 344.16C310.8 353.16 275.88 352.8 259.44 349.68Z" fill="#2B3990"/>
<path d="M290.64 300C302.76 305.4 311.64 298.44 311.64 298.44" stroke="#1E1E1E" stroke-miterlimit="10" stroke-linecap="round" stroke-linejoin="round"/>
<path d="M325.56 290.64C322.08 287.52 318.36 283.32 318.36 283.32" stroke="#1E1E1E" stroke-miterlimit="10" stroke-linecap="round" stroke-linejoin="round"/>
<path d="M263.76 297.36C264.84 298.44 267.72 300.36 272.52 300.12" stroke="#1E1E1E" stroke-miterlimit="10" stroke-linecap="round" stroke-linejoin="round"/>
<path d="M261.6 282.12C263.88 274.32 269.4 265.68 269.4 265.68" stroke="#1E1E1E" stroke-miterlimit="10" stroke-linecap="round" stroke-linejoin="round"/>
<path d="M312.72 331.44C300 347.16 265.44 340.56 265.44 340.56" stroke="#131317" stroke-miterlimit="10" stroke-linecap="round" stroke-linejoin="round"/>
<path d="M317.04 256.32C305.52 254.16 294.6 252.96 287.88 252.48C281.52 264.12 286.68 276.84 286.68 276.84C286.68 276.84 311.88 268.32 317.04 256.32Z" fill="#FAFAFF"/>
<path d="M311.88 257.4L311.76 255.36C303.12 253.92 295.2 253.08 289.56 252.6L289.08 257.4C287.88 264.48 289.08 271.2 289.08 271.2C289.08 271.2 311.04 263.4 311.88 257.4Z" fill="#E7B7B7"/>
<path d="M291.48 227.64C291.84 231 289.08 257.4 289.08 257.4C288.24 270.12 311.28 262.92 311.88 257.4L308.88 224.16L291.48 227.64Z" fill="#E7B7B7"/>
<path d="M289.68 250.8C300.36 246.96 299.28 239.64 299.28 239.64L290.76 239.28C290.4 243.24 290.04 247.44 289.68 250.8Z" fill="#7A1F0C"/>
<path d="M279.36 212.28C276 217.68 278.28 220.56 278.28 225.96C278.28 231.72 276.12 239.88 280.68 244.08C285.48 248.52 296.52 248.64 303.96 239.16C311.64 229.56 309.84 213.48 301.56 209.4C294.48 205.68 284.04 204.84 279.36 212.28Z" fill="#E7B7B7"/>
<path d="M284.04 234.12C281.4 234.12 280.92 233.64 280.44 232.92C280.2 232.44 280.44 231.6 280.92 229.8C281.28 228.48 281.76 227.04 282 225.72C282 225.6 282.12 225.48 282.36 225.48C282.48 225.48 282.6 225.72 282.6 225.84C282.36 227.16 281.88 228.72 281.52 229.92C281.16 231 280.8 232.2 280.92 232.56C281.16 233.04 281.52 233.52 283.92 233.52C284.04 233.52 284.28 233.64 284.28 233.88C284.4 234 284.16 234.12 284.04 234.12Z" fill="#7A1F0C"/>
<path d="M302.4 226.68C303.6 228.96 303 231.72 300.96 232.8C298.92 233.88 296.28 232.92 295.08 230.64C293.88 228.36 294.48 225.6 296.52 224.52C298.56 223.44 301.08 224.4 302.4 226.68Z" fill="#E3A2A2"/>
<path d="M292.08 233.16C289.8 234.72 286.56 236.16 284.52 235.68C285.72 237.24 287.04 239.64 290.52 238.44C292.68 237.72 292.92 235.56 292.08 233.16Z" fill="#7A1F0C"/>
<path d="M292.44 234.72C292.32 234.24 292.2 233.64 292.08 233.16C291.84 233.4 291.48 233.52 291.24 233.76C290.64 234.12 289.92 234.48 289.32 234.84C287.64 235.56 285.84 236.04 284.52 235.68C284.88 236.16 285.24 236.64 285.6 237.12C289.08 237 291.24 235.8 292.44 234.72Z" fill="#FAFAFF"/>
<path d="M289.2 223.2C289.2 224.28 288.72 225.24 288 225.24C287.4 225.24 286.8 224.28 286.8 223.2C286.8 222.12 287.28 221.16 288 221.16C288.6 221.16 289.2 222.12 289.2 223.2Z" fill="#193B59"/>
<path d="M285.84 219.48C286.2 220.2 287.4 219.12 288.96 219C290.28 218.88 291.84 219.6 292.44 220.08C292.56 219.12 291.24 217.92 289.32 217.8C286.68 217.56 285.84 219.48 285.84 219.48Z" fill="#193B59"/>
<path d="M288 221.16C286.92 221.04 285.84 221.16 285.84 221.16L288 221.76V221.16Z" fill="#193B59"/>
<path d="M280.32 224.04C280.32 225 279.84 225.72 279.36 225.72C278.88 225.72 278.4 225 278.4 224.04C278.4 223.08 278.88 222.36 279.36 222.36C279.84 222.36 280.32 223.2 280.32 224.04Z" fill="#193B59"/>
<path d="M280.8 220.8C280.68 221.76 279.36 220.68 278.4 221.04C277.56 221.4 276.84 222 276.48 222.6C276.24 222 276.72 220.68 277.92 220.2C279.72 219.48 280.8 220.8 280.8 220.8Z" fill="#193B59"/>
<path d="M279.36 222.48C278.28 222.36 277.68 222.48 277.68 222.48L279.36 222.96V222.48Z" fill="#193B59"/>
<path d="M303.24 204.36C295.8 201.12 285.6 199.56 280.32 203.88C274.32 208.8 276 217.32 276 217.32C279.36 219.36 286.56 220.08 295.68 212.16C295.68 217.32 301.44 224.64 304.2 226.32C306.72 227.88 306.84 223.44 309 221.64C309.6 221.28 310.68 207.6 303.24 204.36Z" fill="#193B59"/>
<path d="M297.84 229.8H282C279.12 229.8 276.72 227.4 276.72 224.52V221.88C276.72 219 279.12 216.6 282 216.6H297.84C300.72 216.6 303.12 219 303.12 221.88V224.52C303.12 227.4 300.72 229.8 297.84 229.8Z" fill="#FAFAFF"/>
<path d="M292.56 229.8H276.72C273.84 229.8 271.44 227.4 271.44 224.52V221.88C271.44 219 273.84 216.6 276.72 216.6H292.56C295.44 216.6 297.84 219 297.84 221.88V224.52C297.84 227.4 295.44 229.8 292.56 229.8Z" fill="#BF504C"/>
<path d="M272.88 224.52V221.88C272.88 219.72 274.68 217.92 276.84 217.92H292.68C294.84 217.92 296.64 219.72 296.64 221.88V224.52C296.64 226.68 294.84 228.48 292.68 228.48H276.84C274.68 228.48 272.88 226.68 272.88 224.52Z" fill="#FAFAFF"/>
<path d="M315.96 224.28H300.48V219.96H315.96C316.68 219.96 317.28 220.56 317.28 221.28V222.96C317.28 223.68 316.68 224.28 315.96 224.28Z" fill="#BF504C"/>
<g opacity="0.35">
<path d="M287.527 210.823L285.656 209.743L272.876 231.878L274.747 232.958L287.527 210.823Z" fill="#96C1FA"/>
<path d="M295.46 215.713L291.926 213.673L279.146 235.808L282.68 237.848L295.46 215.713Z" fill="#96C1FA"/>
</g>
<path d="M286.68 223.8H282.72C282.36 223.8 282.12 223.56 282.12 223.2C282.12 222.84 282.36 222.6 282.72 222.6H286.68C287.04 222.6 287.28 222.84 287.28 223.2C287.28 223.56 287.04 223.8 286.68 223.8Z" fill="#BF504C"/>
<path d="M306.24 220.08C306.24 210.24 297.84 193.8 281.04 201.12C281.04 201.12 284.76 195.72 292.2 195.36C308.04 195.36 313.2 207.24 313.2 220.08H306.24V220.08Z" fill="#BF504C"/>
<path d="M308.88 221.64C311.04 218.88 315.24 219.72 316.2 223.2C316.92 225.6 316.2 232.2 309.48 231.84C303.36 231.36 307.32 223.56 308.88 221.64Z" fill="#E7B7B7"/>
<path d="M309.84 228C309.72 228 309.48 227.88 309.48 227.76C309 225.72 309.6 223.56 310.8 222.6C311.64 222 312.72 222 313.68 222.72C313.8 222.84 313.92 223.08 313.8 223.2C313.68 223.32 313.44 223.44 313.32 223.32C312.6 222.84 311.88 222.72 311.28 223.2C310.2 223.92 309.72 225.84 310.2 227.64C310.2 227.76 310.08 227.88 309.84 228Z" fill="#7A1F0C"/>
<path d="M441.36 418.68C441.36 431.4 378.12 441.72 300 441.72C221.88 441.72 158.64 431.4 158.64 418.68" stroke="#27AAE1" stroke-miterlimit="10" stroke-linecap="round" stroke-linejoin="round"/>
<path d="M464.4 343.8C464.4 360.12 390.84 373.44 300 373.44C209.16 373.44 135.6 360.24 135.6 343.8" stroke="#27AAE1" stroke-miterlimit="10" stroke-linecap="round" stroke-linejoin="round"/>
<path d="M422.28 489.12C422.28 498.24 367.56 505.56 300 505.56C232.44 505.56 177.72 498.24 177.72 489.12" stroke="#27AAE1" stroke-miterlimit="10" stroke-linecap="round" stroke-linejoin="round"/>
<path opacity="0.4" d="M153.96 180.96V258.24C153.96 260.64 152.28 262.8 149.88 263.4C126.36 269.16 112.56 276.24 112.56 283.92V195.84C112.56 188.4 125.52 181.56 147.36 176.04C150.72 174.96 153.96 177.48 153.96 180.96Z" fill="#2B3990"/>
<path d="M192.24 233.28L188.88 232.68L189 230.76L192.36 231.36L192.24 233.28Z" fill="#96C1FA"/>
<path d="M187.32 232.44L179.04 230.88L179.28 228.84L187.44 230.4L187.32 232.44Z" fill="#96C1FA"/>
<path d="M192.24 237.48L181.8 235.68L182.04 233.52L192.24 235.44V237.48Z" fill="#96C1FA"/>
<path d="M192.12 242.16L185.88 241.08L186.12 238.68L192.12 239.76V242.16Z" fill="#96C1FA"/>
<path d="M183.96 240.72L177.6 239.64L177.96 237.36L184.2 238.44L183.96 240.72Z" fill="#96C1FA"/>
<path d="M166.56 275.76C166.2 275.64 165.96 275.64 165.6 275.52C165.96 275.64 166.2 275.76 166.56 275.76Z" fill="#96C1FA"/>
<path d="M165.6 275.52V280.44C154.2 278.16 143.04 274.92 132.12 270.72V265.56C142.92 269.88 154.2 273.12 165.6 275.52Z" fill="#9973D1"/>
<path d="M132.12 286.08V291.12C144.24 295.32 156.72 298.44 169.44 300.6V295.68C156.72 293.64 144.24 290.4 132.12 286.08Z" fill="#9973D1"/>
<path d="M150.48 281.76C144.24 280.08 138.12 278.16 132.12 275.88V281.04C138.12 283.2 144.36 285.12 150.48 286.8V281.76Z" fill="#9973D1"/>
<path d="M147.72 238.44L142.56 238.32C142.68 232.32 138.6 227.4 133.44 227.28L133.56 221.28C141.48 221.52 147.84 229.2 147.72 238.44Z" fill="#9973D1"/>
<path d="M147.72 238.44C147.6 243.12 145.92 247.2 143.28 250.2L139.68 245.88C141.36 243.96 142.44 241.32 142.56 238.32L147.72 238.44Z" fill="#193B59"/>
<path opacity="0.6" d="M201.72 229.44V306.96C201.72 310.08 198.96 312.6 195.84 312.24C145.68 306.12 112.68 295.68 112.68 283.8V195.72C112.68 207.72 146.28 218.16 197.16 224.28C199.68 224.52 201.72 226.8 201.72 229.44Z" fill="#4254AD"/>
<path d="M143.28 250.32C140.64 253.32 137.04 255.12 133.08 255C125.16 254.88 118.8 247.2 118.92 237.96C119.04 228.72 125.64 221.28 133.56 221.4L133.44 227.4C128.28 227.28 124.08 232.08 124.08 237.96C123.96 243.96 128.04 248.88 133.2 249C135.72 249 138.12 247.92 139.8 246L143.28 250.32Z" fill="#FAFAFF"/>
<path d="M181.68 288V292.8C171.12 291.48 160.68 289.44 150.48 286.68V281.76C150.84 281.88 151.32 282 151.68 282.12C161.52 284.76 171.6 286.68 181.68 288Z" fill="#FAFAFF"/>
<path d="M181.68 278.28V283.08C176.28 282.36 170.88 281.52 165.6 280.32V275.4C165.96 275.52 166.2 275.52 166.56 275.64C171.6 276.84 176.64 277.68 181.68 278.28Z" fill="#FAFAFF"/>
<path d="M181.68 297.72V302.52C177.6 302.04 173.4 301.44 169.32 300.72V295.8C169.56 295.8 169.92 295.92 170.16 295.92C174 296.64 177.84 297.24 181.68 297.72Z" fill="#FAFAFF"/>
<path opacity="0.4" d="M446.04 180.96V258.24C446.04 260.64 447.72 262.8 450.12 263.4C473.64 269.16 487.44 276.24 487.44 283.92V195.84C487.44 188.4 474.48 181.56 452.64 176.04C449.28 174.96 446.04 177.48 446.04 180.96Z" fill="#2B3990"/>
<path opacity="0.6" d="M398.28 229.44V306.96C398.28 310.08 401.04 312.6 404.16 312.24C454.32 306.12 487.32 295.68 487.32 283.8V195.72C487.32 207.72 453.72 218.16 402.84 224.28C400.32 224.52 398.28 226.8 398.28 229.44Z" fill="#96C1FA"/>
<path d="M404.88 230.64C430.2 227.52 451.44 223.32 466.32 218.4C471 216.84 476.16 214.92 480.84 212.4V283.8C480.36 286.44 466.2 297.84 404.88 305.52V230.64Z" fill="#FAFAFF"/>
<path opacity="0.25" d="M446.04 223.8V258.12C446.04 260.52 447.72 262.68 450.12 263.28C464.04 266.64 474.6 270.6 480.96 274.8V212.4C476.28 214.92 471.12 216.84 466.44 218.4C460.44 220.32 453.6 222.12 446.04 223.8Z" fill="#96C1FA"/>
<path d="M411.48 236.4C434.76 233.28 454.32 229.32 468.36 224.64C470.52 223.92 472.44 223.2 474.24 222.6V281.4C470.76 283.8 456.48 291.84 411.48 297.96V236.4V236.4Z" stroke="#27AAE1" stroke-miterlimit="10" stroke-linecap="round" stroke-linejoin="round"/>
<path d="M411.48 290.28L435.72 271.8C437.04 270.72 438.84 270.48 440.4 270.96L450.36 273.96C452.16 274.44 454.08 274.08 455.52 272.76L459.84 268.68C461.4 267.24 463.56 266.88 465.48 267.72L474.48 271.44" stroke="#27AAE1" stroke-miterlimit="10" stroke-linecap="round" stroke-linejoin="round"/>
<path d="M447.36 254.28C447.36 257.16 445.56 259.56 443.4 259.56C441.24 259.56 439.44 257.16 439.44 254.28C439.44 251.4 441.24 249 443.4 249C445.56 249 447.36 251.4 447.36 254.28Z" stroke="#27AAE1" stroke-miterlimit="10" stroke-linecap="round" stroke-linejoin="round"/>
</svg>
